{"glyphs":{":":{"x_min":0,"x_max":132,"ha":132,"o":"m 21 150 q 21 164 30 177 q 38 190 52 190 q 61 190 71 187 q 81 183 90 176 q 99 169 104 160 q 108 150 107 140 q 105 126 93 118 q 80 110 69 110 q 52 110 37 121 q 21 131 21 150 z m 25 350 q 23 369 41 378 q 59 387 74 387 q 78 387 83 382 q 89 378 94 372 q 100 365 104 359 q 107 353 107 350 q 111 336 99 327 q 86 317 74 317 q 61 317 44 325 q 27 333 25 350 z"},"$":{"x_min":0,"x_max":334,"ha":334,"o":"m 175 21 q 174 25 172 35 q 170 45 167 56 q 164 66 162 76 q 160 86 159 90 l 159 95 q 158 102 156 119 q 153 136 150 155 q 147 174 145 191 q 143 208 142 214 q 139 217 131 218 q 124 219 116 220 q 108 221 103 222 q 97 224 97 228 q 85 234 83 242 q 81 249 87 255 q 94 261 107 264 q 120 267 138 265 q 138 275 138 293 q 139 311 138 330 q 138 349 136 367 q 134 385 130 396 q 119 395 99 398 q 79 401 60 408 q 40 415 25 426 q 10 437 10 451 q 10 480 24 509 q 39 538 56 561 q 60 565 70 579 q 81 592 93 606 q 104 620 115 633 q 125 646 130 651 q 130 654 131 662 q 132 670 132 678 q 133 687 133 694 q 134 702 134 705 l 134 718 q 135 726 137 745 q 140 764 142 786 q 145 808 147 827 q 149 846 150 854 q 153 866 161 880 q 169 895 183 895 q 195 895 204 887 q 212 880 217 870 l 217 847 q 217 812 211 778 q 205 744 205 710 q 221 710 234 716 q 247 722 264 722 q 279 722 290 713 q 300 704 300 689 q 300 678 297 673 q 294 669 289 667 q 283 666 276 666 q 270 666 262 664 q 257 663 247 659 q 236 655 226 649 q 216 644 208 637 q 200 630 200 622 l 200 462 l 204 458 q 216 458 233 456 q 251 454 268 449 q 285 443 298 434 q 312 424 315 408 q 316 406 316 396 q 316 386 316 383 q 316 361 306 341 q 295 321 279 303 q 264 284 246 268 q 228 252 213 239 l 213 210 l 242 29 q 242 24 239 20 q 236 15 231 10 q 227 6 222 3 q 217 0 214 0 q 202 0 192 4 q 183 8 175 21 z m 204 346 q 205 343 206 336 q 207 330 208 330 l 213 330 q 214 330 225 341 q 236 352 242 358 q 246 364 252 372 q 258 379 258 388 l 258 392 q 255 392 249 392 q 242 393 235 393 q 228 394 221 395 q 215 396 213 396 l 210 396 q 206 396 204 392 l 204 369 z m 85 474 q 85 468 89 465 q 93 463 98 462 q 103 462 108 462 q 114 462 118 462 q 120 462 125 461 q 130 461 130 466 l 130 546 q 124 546 117 537 q 109 528 102 517 q 95 505 90 493 q 85 480 85 474 z"},"?":{"x_min":0,"x_max":357,"ha":357,"o":"m 167 43 q 167 57 179 69 q 190 82 206 82 q 225 82 242 72 q 260 62 260 39 q 260 19 247 11 q 234 4 218 4 q 199 4 183 13 q 167 22 167 43 z m 102 276 q 107 303 120 326 q 133 349 148 370 q 163 391 180 411 q 196 432 210 454 q 212 457 217 466 q 223 476 229 487 q 234 498 240 509 q 245 520 247 524 q 252 535 251 538 q 250 541 250 551 q 211 551 179 536 q 147 521 115 499 q 101 489 89 478 q 77 466 59 466 q 44 466 27 477 q 11 488 11 506 q 11 512 12 513 q 14 515 20 519 q 48 541 75 560 q 103 579 131 593 q 160 607 192 616 q 224 624 261 624 q 292 624 315 609 q 338 595 338 561 q 338 538 330 515 q 322 491 311 469 q 299 446 285 426 q 271 405 259 388 q 251 376 238 361 q 226 347 214 331 q 202 314 193 298 q 185 282 185 270 q 185 262 191 258 q 198 254 198 246 q 198 229 188 221 q 177 214 161 214 q 136 214 119 232 q 102 250 102 274 z"},"<":{"x_min":0,"x_max":442,"ha":442,"o":"m 186 116 q 183 116 172 116 q 162 115 149 114 q 137 113 126 113 q 116 112 113 112 l 84 112 q 72 112 60 114 q 47 115 37 120 q 26 124 20 133 q 13 142 13 157 q 13 171 21 179 q 29 188 38 198 q 41 202 49 213 q 58 224 67 235 q 76 247 84 257 q 93 268 96 272 q 99 282 106 289 q 113 295 117 305 l 220 466 q 226 475 229 486 q 232 497 237 507 q 241 517 248 523 q 255 529 269 529 q 290 529 303 514 q 316 498 318 479 q 319 477 318 472 q 316 468 314 466 l 191 272 q 187 262 177 250 q 167 239 157 228 q 147 217 140 205 q 133 193 133 183 q 196 183 257 179 q 317 176 381 169 q 384 163 390 160 q 396 156 402 153 q 408 149 413 145 q 417 140 417 130 q 417 91 377 91 q 363 91 355 96 q 347 101 335 103 q 298 110 261 113 q 224 116 186 116 z"},"'":{"x_min":0,"x_max":126,"ha":126,"o":"m 22 493 q 22 500 24 518 q 25 535 27 555 q 28 574 29 592 q 30 609 30 617 q 37 642 62 642 q 83 642 92 629 q 101 617 101 598 q 101 592 100 575 q 100 558 98 536 q 96 514 93 490 q 91 466 87 446 q 83 427 77 414 q 71 401 64 402 q 51 404 43 413 q 35 421 30 432 q 25 442 24 455 q 22 467 22 478 z"},"=":{"x_min":0,"x_max":410,"ha":410,"o":"m 62 166 q 82 188 109 200 q 136 213 166 223 q 195 232 226 241 q 257 250 285 264 q 307 271 318 273 q 329 275 346 275 q 358 275 374 271 q 390 266 392 251 q 391 247 386 236 q 382 225 380 223 q 378 221 371 216 q 363 211 359 209 q 328 204 297 192 q 267 180 236 166 q 205 152 174 141 q 144 130 112 127 q 96 127 79 137 q 62 147 62 166 z m 17 283 q 15 302 25 309 q 36 316 50 320 q 71 328 94 335 q 117 342 150 349 q 183 356 229 367 q 274 377 342 392 l 347 392 q 351 392 356 390 q 361 388 367 384 q 372 381 376 377 q 380 373 380 369 q 380 356 373 345 q 366 334 355 329 q 285 304 216 289 q 147 273 77 250 q 70 250 60 252 q 50 254 41 258 q 31 262 24 268 q 18 274 17 283 z"},"a":{"x_min":0,"x_max":390,"ha":390,"o":"m 250 272 q 241 257 230 235 q 219 213 206 188 q 193 163 178 138 q 163 113 147 93 q 131 72 113 58 q 96 44 77 41 q 69 41 60 42 q 50 44 40 47 q 30 51 24 57 q 18 63 18 74 q 19 174 32 255 q 46 337 75 399 q 104 461 150 502 q 196 543 262 561 q 264 561 269 561 q 274 562 276 562 q 306 562 319 535 q 332 507 338 447 q 345 387 347 292 q 350 198 357 66 q 360 56 361 48 q 361 40 361 29 q 361 15 353 7 q 344 0 330 0 q 302 0 290 16 q 278 31 274 58 q 274 59 273 73 q 271 88 269 107 q 267 126 265 146 q 263 165 262 178 l 262 182 q 260 191 259 206 q 259 221 257 234 q 255 251 254 268 z m 229 466 q 202 446 177 413 q 151 380 141 349 q 136 334 130 309 q 124 283 120 258 q 115 233 112 212 q 109 191 109 186 q 110 186 112 188 q 113 189 114 190 q 175 249 200 317 q 225 385 229 466 z"},"L":{"x_min":0,"x_max":437,"ha":437,"o":"m 31 151 q 31 227 34 301 q 36 375 36 451 q 36 495 32 539 q 27 583 27 627 q 27 641 36 650 q 44 660 58 660 q 81 660 93 650 q 104 641 109 626 q 114 611 114 593 q 114 574 114 557 q 114 553 115 537 q 115 521 116 503 q 117 485 118 470 q 118 454 118 450 l 118 418 q 118 354 116 292 q 114 229 114 165 l 114 124 q 114 119 116 111 q 117 103 118 103 l 126 103 l 357 194 q 365 201 371 202 q 377 202 385 202 q 390 202 397 202 q 405 201 413 199 q 420 196 425 192 q 431 188 431 179 q 431 156 406 140 q 375 123 342 109 q 309 95 274 86 l 270 82 q 223 69 182 45 q 142 21 98 0 l 89 0 q 62 0 50 18 q 37 35 33 59 q 29 83 30 109 q 31 135 31 151 z"},"3":{"x_min":0,"x_max":390,"ha":390,"o":"m 158 37 q 158 46 160 51 q 161 57 171 62 q 172 62 176 63 q 180 63 184 64 q 188 65 192 66 q 195 66 196 66 q 202 67 209 72 q 217 76 224 82 q 231 87 237 92 q 243 97 246 99 q 274 123 285 152 q 295 182 295 218 q 295 223 295 231 q 295 240 294 250 q 294 259 291 266 q 288 273 282 276 q 280 277 273 277 q 266 277 264 277 q 241 277 221 268 q 201 259 182 248 q 163 236 143 227 q 123 218 100 218 q 84 218 75 228 q 66 238 66 253 q 66 269 85 295 q 104 321 127 351 q 150 380 173 409 q 195 438 204 458 l 196 458 q 174 458 155 449 q 137 439 120 429 q 104 418 87 409 q 71 399 54 399 q 41 399 27 406 q 14 412 14 429 q 14 442 28 457 q 43 471 66 483 q 90 495 119 506 q 147 517 175 524 q 203 532 227 537 q 250 541 263 541 q 299 541 299 503 l 299 490 q 282 446 259 412 q 235 377 212 338 l 222 338 q 235 338 247 340 q 258 342 271 342 q 311 342 333 317 q 355 292 365 256 q 365 251 366 236 q 366 221 366 217 q 366 151 339 105 q 312 59 258 21 q 230 0 198 0 q 183 0 170 11 q 158 22 158 37 z"},";":{"x_min":0,"x_max":132,"ha":132,"o":"m -19 -186 q -19 -184 -18 -180 q -18 -176 -18 -175 l 25 18 l 25 81 q 25 82 32 88 q 39 95 43 97 q 44 97 46 97 q 49 98 50 98 q 74 98 86 83 q 98 67 98 46 q 98 21 93 -6 q 91 -15 88 -29 q 86 -43 83 -56 q 81 -69 79 -79 q 77 -89 77 -89 l 72 -97 l 47 -208 q 45 -218 37 -224 q 28 -230 18 -229 q -19 -225 -19 -186 z m 34 235 q 34 240 37 248 q 39 255 43 262 q 48 269 54 273 q 60 278 66 278 q 73 278 81 273 q 89 269 95 262 q 102 255 106 247 q 110 239 110 233 l 110 221 q 108 217 100 209 q 92 202 89 200 l 85 200 q 67 200 51 208 q 34 216 34 235 z"},"J":{"x_min":0,"x_max":315,"ha":315,"o":"m 10 249 q 10 262 17 273 q 23 285 39 285 q 48 285 54 279 q 60 273 64 265 q 68 257 72 249 q 76 240 81 235 q 88 229 105 210 q 122 190 140 169 q 157 147 172 129 q 187 111 188 107 q 190 105 194 101 q 198 97 200 95 l 204 99 q 204 100 205 108 q 205 117 205 128 q 205 139 205 150 q 205 161 205 168 q 205 252 203 334 q 200 417 200 501 l 200 639 q 203 652 212 659 q 222 665 234 665 q 248 665 261 659 q 274 653 278 639 q 276 517 282 398 q 287 280 287 159 q 287 145 287 118 q 287 91 283 64 q 278 38 266 19 q 254 -1 230 -1 q 229 -1 225 0 q 222 0 221 0 q 216 2 203 10 q 190 18 188 21 l 27 202 q 16 215 13 225 q 10 235 10 249 z"},"V":{"x_min":0,"x_max":510,"ha":510,"o":"m 41 466 q 30 474 21 491 q 11 509 11 522 q 11 537 22 545 q 34 553 47 553 q 62 553 73 547 q 84 541 94 527 q 104 514 118 490 q 131 467 151 431 q 172 396 203 346 q 234 297 280 231 q 283 224 291 212 q 299 201 301 198 l 305 206 l 358 408 l 362 417 l 400 553 q 397 570 408 584 q 419 598 436 598 q 452 598 469 586 q 486 575 486 557 l 486 553 l 375 136 q 375 134 373 124 q 371 113 369 101 q 367 89 365 77 q 363 64 362 58 q 361 49 361 39 q 360 28 357 20 q 354 12 347 6 q 340 0 326 0 q 303 0 291 13 q 279 25 273 43 q 268 62 264 82 q 260 102 251 115 z"},"\"":{"x_min":0,"x_max":247,"ha":247,"o":"m 144 660 q 140 676 150 683 q 160 689 173 689 q 189 689 198 678 q 207 667 210 652 q 211 641 212 613 q 214 586 216 555 q 218 524 220 497 q 222 469 222 458 l 222 436 q 222 426 221 420 q 221 415 219 411 q 217 407 212 404 q 207 400 198 396 l 195 396 q 178 396 170 411 q 162 426 159 446 q 156 466 157 485 q 157 505 156 515 q 155 523 154 544 q 152 564 150 587 q 148 610 146 631 q 145 651 144 660 z m 42 494 q 43 511 45 536 q 47 562 49 586 q 51 610 52 628 q 54 646 54 646 l 62 671 q 62 672 67 672 q 73 673 76 673 q 104 673 110 657 q 116 642 116 616 q 116 567 112 518 q 108 468 103 420 q 102 402 84 402 q 71 402 63 412 q 55 421 50 433 q 46 445 44 459 q 42 473 42 481 z"},"7":{"x_min":0,"x_max":354,"ha":354,"o":"m 194 45 q 194 81 197 117 q 199 153 198 190 l 239 478 l 239 489 q 239 491 240 497 q 240 502 235 503 q 196 490 148 476 q 101 462 58 462 l 37 462 q 26 468 18 477 q 10 485 8 499 q 6 514 17 521 q 27 529 42 533 q 57 536 71 537 q 86 538 94 540 q 120 545 143 550 q 166 556 188 562 q 210 568 232 576 q 255 584 280 594 l 286 594 q 303 594 316 583 q 330 572 330 555 l 330 544 l 280 272 q 279 269 278 255 q 277 241 276 225 q 274 208 273 192 q 272 177 272 169 q 272 161 272 141 q 271 120 271 97 q 271 74 272 54 q 272 33 272 25 q 265 9 257 4 q 250 0 232 0 q 213 0 204 14 q 194 28 194 45 z"},"S":{"x_min":0,"x_max":536,"ha":536,"o":"m 169 35 q 185 57 204 67 q 223 78 243 85 q 263 92 283 98 q 303 104 322 119 q 333 125 353 137 q 372 148 391 163 q 410 177 424 190 q 438 204 438 214 q 438 215 438 215 q 436 215 436 216 l 434 218 q 429 220 418 223 q 407 226 405 227 q 279 241 203 252 q 126 264 84 276 q 43 289 29 306 q 16 322 16 348 q 16 357 20 369 q 23 381 29 393 q 34 404 40 414 q 46 424 51 430 q 66 449 92 465 q 117 480 146 492 q 176 504 206 513 q 235 521 260 528 q 287 530 315 542 q 343 553 370 557 q 384 557 393 546 q 401 535 401 523 q 401 507 395 499 q 389 490 378 486 q 368 481 355 479 q 343 477 330 474 q 322 472 309 468 q 295 465 281 461 q 268 457 257 454 q 246 451 244 450 q 214 438 187 426 q 160 415 140 403 q 120 392 109 378 q 98 365 99 350 l 99 349 q 108 335 143 328 q 177 321 223 316 q 270 312 321 307 q 372 302 415 292 q 458 282 486 266 q 515 249 516 221 q 516 210 511 195 q 507 181 499 173 q 475 146 441 116 q 407 87 368 62 q 329 37 288 20 q 246 3 206 0 q 192 0 181 10 q 169 21 169 35 z"},"}":{"x_min":0,"x_max":289,"ha":289,"o":"m 18 -74 q 18 -62 30 -56 q 42 -49 58 -44 q 74 -39 90 -35 q 106 -31 114 -25 q 143 -3 166 29 q 188 62 188 99 q 188 116 178 128 q 168 140 152 148 q 137 157 119 166 q 101 175 84 187 q 68 198 57 215 q 45 232 43 260 q 43 270 47 280 q 51 290 56 299 q 61 308 64 314 q 68 321 68 324 l 68 326 l 64 330 q 58 337 56 347 q 55 356 55 371 q 58 407 72 442 q 87 478 102 513 q 116 549 126 586 q 136 623 130 663 q 130 668 129 681 q 128 693 121 706 q 113 719 97 729 q 81 738 51 738 q 45 741 36 749 q 27 757 21 767 q 16 776 15 787 q 15 797 24 804 q 34 811 57 812 q 80 813 122 808 q 141 808 162 795 q 184 782 199 756 q 215 730 218 690 q 222 649 204 594 q 196 557 188 520 q 181 482 163 450 q 155 436 146 420 q 138 405 138 388 l 138 384 q 148 390 159 387 q 170 384 178 375 q 187 367 191 356 q 196 345 196 334 q 194 320 183 313 q 171 306 158 298 q 145 291 133 281 q 122 271 122 252 q 122 240 129 233 q 136 226 146 220 q 155 215 166 210 q 176 206 183 202 q 197 194 212 186 q 228 178 239 165 q 251 152 258 135 q 266 117 266 93 q 266 61 249 25 q 231 -11 204 -42 q 177 -72 143 -92 q 108 -112 74 -112 q 66 -112 57 -110 q 47 -107 38 -103 q 29 -98 23 -91 q 18 -84 18 -74 z"},"Z":{"x_min":0,"x_max":730,"ha":730,"o":"m 72 37 q 72 39 74 43 q 75 48 76 50 q 80 57 93 75 q 105 94 131 134 q 157 174 199 240 q 241 306 306 408 l 278 408 l 88 379 l 78 379 q 71 379 62 382 q 52 386 43 391 q 34 396 28 403 q 22 410 22 418 q 22 433 30 440 q 38 447 50 451 q 62 454 74 454 q 87 454 97 454 l 307 482 q 308 482 319 483 q 331 483 336 483 q 349 483 363 483 q 378 483 390 480 q 402 477 410 468 q 418 459 418 441 q 418 432 412 422 q 405 413 398 408 l 237 149 q 223 140 214 120 q 206 100 195 86 q 197 83 200 83 q 203 82 206 82 l 212 82 l 670 145 q 683 145 699 137 q 715 129 715 112 q 715 98 709 88 q 703 79 690 70 q 665 70 623 69 q 580 67 515 60 q 450 53 359 39 q 269 24 146 0 q 144 -1 140 -1 l 131 -1 q 124 -1 114 1 q 104 3 94 7 q 85 11 79 18 q 72 24 72 35 z"},"x":{"x_min":0,"x_max":421,"ha":421,"o":"m 59 -95 q 58 -88 64 -68 q 70 -48 81 -20 q 91 8 103 40 q 114 72 125 102 q 137 132 145 156 q 153 180 155 192 q 155 194 155 198 q 154 202 154 203 q 137 214 119 232 q 101 250 83 270 q 65 290 49 311 q 32 331 18 347 l 18 351 q 18 366 29 375 q 40 384 55 384 q 77 384 96 368 q 115 352 130 333 q 146 313 158 297 q 170 281 179 281 l 183 281 q 184 286 187 296 q 190 307 197 328 q 204 350 216 385 q 228 420 245 475 q 247 483 258 486 q 269 488 276 488 q 291 488 303 479 q 315 469 315 452 l 315 446 l 247 212 l 406 75 l 410 63 l 410 62 q 410 45 398 37 q 386 29 372 29 q 357 29 336 45 q 315 61 294 79 q 272 98 254 113 q 236 129 228 129 l 224 129 q 210 116 201 94 q 192 71 186 44 q 179 18 172 -11 q 165 -39 156 -63 q 146 -87 134 -104 q 121 -122 102 -127 q 89 -127 74 -118 q 59 -109 59 -95 z"},")":{"x_min":0,"x_max":264,"ha":264,"o":"m 17 25 q 17 33 27 44 q 37 55 42 62 q 62 90 79 113 q 97 136 112 165 q 118 178 123 194 q 128 210 136 222 q 150 273 158 321 q 166 369 166 422 q 166 480 157 540 q 148 600 132 656 q 129 668 121 679 q 113 689 105 700 q 98 710 92 720 q 86 729 86 741 q 86 752 96 762 q 105 771 117 771 q 136 771 151 759 q 167 747 180 729 q 192 712 201 693 q 210 674 214 660 q 222 636 227 607 q 232 579 236 549 q 240 520 242 490 q 243 461 244 435 q 244 377 237 321 q 229 266 210 210 q 210 208 206 199 q 201 189 196 178 q 191 166 186 154 q 181 143 178 136 q 172 125 158 102 q 145 79 127 56 q 110 33 92 16 q 73 -1 59 -1 q 54 -1 46 0 q 39 2 32 5 q 25 8 21 13 q 17 18 17 25 z"},"&":{"x_min":0,"x_max":340,"ha":340,"o":"m 302 215 q 305 210 302 202 q 300 193 295 185 q 291 176 286 169 q 280 162 275 161 q 250 153 221 159 q 165 169 125 193 q 84 217 57 262 q 54 265 48 275 q 43 286 42 288 q 31 316 42 342 q 53 367 82 377 q 86 379 94 380 q 102 382 111 383 q 121 385 130 386 q 139 388 145 390 q 128 410 105 425 q 82 440 56 466 q 54 468 52 471 q 51 474 50 475 q 34 501 61 509 q 69 517 88 525 q 107 533 131 540 q 154 546 180 548 q 206 551 229 547 q 251 544 268 533 q 285 521 291 500 q 300 489 292 481 q 284 473 274 469 q 262 464 250 464 q 237 465 224 466 q 211 467 197 467 q 184 467 168 462 l 162 459 q 177 447 195 436 q 213 425 230 414 q 247 402 261 392 q 275 381 283 370 q 289 361 287 352 q 284 342 273 339 q 256 333 241 331 q 227 329 212 328 q 197 327 183 326 q 168 324 150 318 q 134 311 139 297 q 144 283 159 269 q 175 254 195 242 q 216 229 231 226 q 240 223 262 226 q 263 226 271 227 q 279 228 280 229 q 290 229 293 225 q 297 222 302 215 z m 155 -17 q 151 3 148 30 q 146 58 141 77 q 143 90 151 99 q 159 107 172 110 q 196 114 209 102 q 222 89 225 68 q 227 60 230 41 q 233 22 234 4 q 234 -15 230 -29 q 226 -43 213 -43 q 197 -43 188 -43 q 178 -43 171 -41 q 164 -39 161 -33 q 157 -27 155 -17 z m 116 651 q 115 660 115 665 q 115 670 115 674 q 115 679 116 684 q 116 689 115 699 q 116 712 125 721 q 134 730 146 732 q 172 736 183 724 q 194 712 199 692 q 200 683 202 664 q 204 646 204 626 q 203 607 198 593 q 192 579 180 579 q 163 579 152 587 q 142 595 134 605 q 127 616 123 628 q 119 641 116 651 z"},"_":{"x_min":0,"x_max":582,"ha":582,"o":"m 17 39 q 17 44 21 54 q 24 64 29 66 l 522 162 q 524 162 532 162 q 539 161 541 161 q 545 154 549 150 q 554 146 558 142 q 562 138 564 131 q 566 125 566 113 q 566 102 555 93 q 543 84 532 82 l 78 0 l 77 0 q 54 0 43 8 q 32 16 17 33 z"},"v":{"x_min":0,"x_max":379,"ha":379,"o":"m 124 140 l 17 400 q 16 401 16 402 l 16 406 q 16 415 21 421 q 26 428 34 433 q 36 433 42 433 q 48 434 50 434 q 68 434 77 428 q 85 422 99 412 q 103 397 109 382 q 115 366 125 342 q 134 318 148 282 q 163 246 186 190 l 190 186 q 193 190 196 198 q 198 206 205 226 q 211 245 223 282 q 234 319 256 383 q 264 396 267 412 q 270 429 273 443 q 277 458 286 468 q 294 478 312 478 q 328 478 344 464 q 359 451 359 433 q 359 424 354 414 q 348 403 342 396 l 223 0 l 217 0 q 213 0 206 1 q 198 2 190 4 q 183 7 177 10 q 171 13 170 17 l 124 136 z"},"O":{"x_min":0,"x_max":322,"ha":322,"o":"m 21 173 q 22 179 21 204 q 21 229 21 267 q 21 305 23 350 q 24 395 30 440 q 35 486 45 529 q 56 571 72 603 q 78 629 101 639 q 123 649 164 651 q 190 651 209 638 q 228 624 241 604 q 254 584 264 561 q 273 537 281 519 l 281 514 q 288 494 292 456 q 295 417 296 375 q 298 332 298 293 q 298 254 298 233 q 298 204 290 164 q 282 123 265 87 q 248 51 221 25 q 193 0 155 0 q 123 0 98 17 q 73 33 56 59 q 39 85 30 115 q 21 146 21 173 z m 116 107 q 118 97 127 85 q 137 74 149 74 l 157 74 q 198 111 211 160 q 224 208 224 262 q 224 274 223 301 q 222 327 219 360 q 217 393 213 429 q 209 465 203 497 q 197 528 189 552 q 182 575 171 584 q 170 583 168 580 q 167 577 167 576 q 146 551 130 507 q 113 463 105 403 q 97 343 98 268 q 100 193 116 107 z"},"(":{"x_min":0,"x_max":251,"ha":251,"o":"m 17 194 q 15 183 17 199 q 19 215 23 248 q 27 280 35 325 q 42 369 51 415 q 61 460 71 501 q 82 542 95 569 q 107 604 127 634 q 147 665 170 693 q 175 700 181 705 q 187 710 196 710 q 210 710 221 700 q 231 689 231 674 q 231 661 225 647 q 219 634 210 621 q 201 607 192 595 q 183 583 178 573 q 161 538 144 488 q 127 438 113 385 q 100 332 92 284 q 85 235 90 205 q 90 167 99 131 q 107 96 141 70 q 145 67 154 61 q 163 54 173 47 q 184 40 193 34 q 202 27 206 25 q 206 23 207 21 q 207 18 207 17 q 207 6 198 3 q 188 0 180 0 q 144 0 114 19 q 84 37 63 65 q 42 94 30 128 q 18 162 17 194 z"},"C":{"x_min":0,"x_max":421,"ha":421,"o":"m 22 149 q 34 247 41 300 q 48 353 51 378 q 55 407 55 412 q 63 442 73 478 q 83 513 99 543 q 115 573 141 594 q 166 614 206 614 q 224 614 238 612 q 252 609 265 604 q 277 598 290 589 q 302 581 315 569 q 325 561 327 559 q 328 557 328 547 q 328 534 319 522 q 311 511 294 511 q 280 511 271 517 q 263 523 254 532 q 246 540 237 546 q 228 553 213 553 q 197 553 186 544 q 174 536 166 523 q 157 511 153 495 q 148 479 146 466 l 101 153 q 101 151 100 144 q 100 137 100 133 q 100 126 100 116 q 100 105 102 95 q 104 85 108 78 q 113 70 123 70 q 129 70 134 74 q 181 105 214 147 q 248 188 278 235 q 279 237 284 245 q 288 252 292 260 q 297 269 301 277 q 305 285 307 289 q 312 302 315 315 q 318 329 323 341 q 327 353 336 360 q 345 367 363 367 q 377 367 390 355 q 402 344 402 328 l 402 326 q 378 256 339 196 q 301 137 254 78 q 225 43 187 21 q 148 0 102 0 l 97 0 q 53 17 38 49 q 22 82 22 126 z"},"W":{"x_min":0,"x_max":505,"ha":505,"o":"m 237 334 l 233 338 q 228 314 227 291 q 226 268 225 243 q 225 235 224 217 q 224 198 223 177 q 222 156 221 137 q 221 118 221 111 q 218 100 208 91 q 198 82 186 82 q 181 82 173 83 q 166 85 159 87 q 151 90 145 94 q 139 98 138 103 l 76 318 l 31 495 q 30 496 27 502 q 24 508 21 515 q 19 522 16 529 q 14 536 14 540 q 14 554 27 562 q 40 570 51 570 q 87 570 97 540 l 150 346 q 155 348 157 356 q 158 365 158 367 q 158 368 160 377 q 161 386 165 408 q 169 430 176 468 q 184 506 196 565 q 204 575 215 579 q 226 582 239 582 q 252 582 259 578 q 267 574 270 561 l 336 281 q 338 276 340 271 q 342 265 344 260 q 348 292 351 317 q 354 342 356 366 q 359 390 362 417 q 365 443 370 479 q 375 514 382 562 q 389 609 398 676 q 401 695 416 700 q 430 705 447 705 q 448 705 452 704 q 455 702 456 701 q 458 700 464 699 q 470 698 472 697 q 476 688 479 682 q 481 676 481 668 q 479 678 475 659 q 470 641 462 599 q 455 557 447 495 q 438 433 431 355 q 423 277 417 187 q 410 97 406 0 q 403 0 396 1 q 390 2 382 4 q 375 6 369 9 q 363 12 361 17 z"},"A":{"x_min":0,"x_max":497,"ha":497,"o":"m 24 62 q 24 120 32 178 q 40 235 46 293 q 46 296 47 306 q 48 316 49 328 q 51 340 52 350 q 54 360 54 363 l 54 367 l 95 672 q 93 691 101 707 q 109 722 132 722 q 156 725 172 715 q 188 706 199 691 q 210 677 217 659 q 224 642 231 627 q 236 613 244 595 q 251 576 261 548 q 271 520 286 479 q 300 438 318 379 l 322 375 q 329 379 348 388 q 367 396 388 406 q 409 416 428 425 q 446 434 454 437 q 455 438 459 440 q 464 441 466 442 l 468 442 q 478 442 482 435 q 487 428 487 421 q 487 410 482 402 q 478 395 471 388 q 465 382 458 376 q 450 370 446 363 l 350 314 q 346 310 346 307 q 346 299 354 282 q 362 266 367 256 q 370 250 377 234 q 384 219 392 202 q 399 186 407 170 q 414 155 417 149 l 417 146 q 417 111 382 111 q 371 111 359 114 q 348 116 342 128 l 276 268 l 268 268 q 230 239 188 212 q 146 185 103 165 q 96 130 94 94 q 93 58 95 21 q 87 11 79 5 q 71 0 58 0 q 44 0 37 6 q 30 13 27 22 q 24 31 24 42 q 24 53 24 62 z m 111 251 q 141 263 168 282 q 196 302 222 318 q 225 320 229 322 q 233 324 237 327 q 241 330 247 334 l 247 342 l 157 598 l 153 602 q 150 596 146 568 q 142 541 136 498 q 131 454 125 397 q 118 341 111 276 z"},"f":{"x_min":0,"x_max":286,"ha":286,"o":"m 64 211 q 43 207 31 214 q 19 222 14 233 q 9 244 9 255 q 10 267 14 270 q 17 271 27 277 q 37 284 39 286 q 40 286 42 288 q 43 289 44 290 l 44 308 q 44 362 38 416 q 31 469 31 522 q 31 558 33 596 q 34 634 45 666 q 57 698 81 719 q 105 739 151 739 q 159 739 170 739 q 181 739 190 737 q 199 734 206 728 q 213 722 213 710 q 213 692 205 687 q 196 682 184 680 q 171 679 157 676 q 144 674 134 661 q 132 659 129 651 q 126 643 126 640 q 124 633 122 621 q 120 609 119 598 q 117 586 116 577 q 114 567 114 566 q 114 565 114 559 q 114 553 114 544 q 113 535 113 526 q 113 517 113 511 q 113 490 113 473 q 113 455 114 438 q 115 421 117 403 q 119 386 122 364 l 130 364 l 262 442 q 275 445 286 452 q 297 459 311 459 q 324 459 339 452 q 354 445 354 431 q 354 420 349 415 q 344 410 341 401 q 337 400 326 396 q 315 391 312 389 q 304 384 287 374 q 270 363 251 352 q 232 341 217 331 q 201 321 196 318 q 189 313 180 307 q 170 300 161 292 q 151 285 145 280 q 138 274 138 274 l 138 265 l 163 182 q 162 179 163 175 q 163 172 167 170 l 213 30 q 218 13 206 1 q 193 -11 178 -11 q 160 -11 144 -1 q 127 8 122 26 l 68 203 l 64 211 z"},"Q":{"x_min":0,"x_max":507,"ha":507,"o":"m 314 78 q 305 89 296 100 q 287 110 276 119 l 274 120 q 271 120 259 104 q 248 88 230 68 q 212 48 188 32 q 164 16 134 16 q 104 16 84 32 q 63 49 50 74 q 37 99 31 127 q 25 155 25 179 q 25 193 28 207 q 30 221 29 234 q 32 247 40 279 q 47 312 55 348 q 63 385 71 417 q 79 449 82 462 q 83 468 88 481 q 93 495 98 511 q 104 527 108 541 q 113 555 115 561 q 120 564 123 568 q 125 572 127 575 q 130 578 133 580 q 137 582 144 582 q 158 582 174 575 q 190 568 194 552 q 196 544 194 543 q 192 543 198 536 q 212 541 227 542 q 241 544 255 544 q 281 544 296 528 q 312 512 319 489 q 326 466 328 441 q 330 416 330 397 q 330 389 329 376 q 328 363 327 350 q 326 336 326 323 q 325 310 326 301 l 306 206 q 305 206 313 196 q 321 187 326 181 q 327 180 332 175 q 336 171 340 167 q 345 162 349 158 q 353 153 354 152 q 355 151 357 148 q 358 146 359 144 l 561 -66 q 562 -67 564 -73 q 567 -79 569 -82 l 569 -83 q 569 -84 570 -85 q 570 -102 560 -113 q 549 -124 534 -124 q 526 -124 517 -123 q 508 -121 503 -116 z m 107 194 q 103 172 107 151 q 112 131 120 111 q 122 107 125 99 q 129 90 134 90 q 143 90 155 99 q 167 108 179 122 q 190 135 198 149 q 206 163 206 173 q 206 186 198 193 q 189 201 189 214 q 189 229 195 234 q 200 240 208 242 q 216 244 224 245 q 232 246 239 251 q 244 255 249 272 q 253 290 256 311 q 260 331 262 350 q 264 369 264 377 q 264 388 264 401 q 264 415 263 429 q 262 443 259 457 q 257 471 252 482 l 246 482 q 227 482 210 472 q 194 461 182 445 q 170 430 160 412 q 150 394 144 379 q 142 374 138 365 q 134 356 136 350 z"},"w":{"x_min":0,"x_max":495,"ha":495,"o":"m 138 47 q 132 69 104 162 q 75 254 24 429 q 24 431 23 437 q 21 443 21 445 q 23 457 39 459 q 55 462 62 461 q 84 458 94 447 q 104 437 111 416 l 168 229 l 172 225 q 184 244 186 270 q 188 295 191 319 q 194 343 204 362 q 214 382 241 390 q 247 390 254 387 q 261 385 267 380 q 273 376 278 371 q 283 365 285 359 l 338 190 l 349 176 q 353 193 359 232 q 365 271 372 314 q 378 356 383 393 q 388 430 390 443 q 390 445 390 450 q 391 455 391 457 q 398 466 412 470 q 426 475 437 473 q 440 472 447 468 q 453 465 459 459 q 465 454 468 448 q 472 442 472 438 l 416 37 q 415 31 409 28 q 403 24 396 22 q 389 20 381 19 q 374 19 370 19 q 347 27 330 47 q 312 67 299 92 q 286 116 276 142 q 266 168 254 188 l 250 189 q 243 183 239 159 q 234 136 231 109 q 229 83 227 62 q 225 41 225 39 q 223 25 207 18 q 190 10 178 12 q 164 14 154 25 q 144 36 138 47 z"},"-":{"x_min":0,"x_max":399,"ha":399,"o":"m 53 247 q 53 264 64 271 q 76 278 90 281 l 335 306 q 352 306 366 300 q 381 294 381 274 q 381 270 375 264 q 368 258 360 253 q 353 248 344 245 q 335 241 331 243 l 90 217 q 77 217 65 225 q 53 233 53 247 z"},"E":{"x_min":0,"x_max":412,"ha":412,"o":"m 76 21 q 66 61 62 95 q 57 130 55 169 q 54 191 55 208 q 56 224 51 243 q 50 247 46 249 q 43 251 40 254 q 36 257 33 261 q 30 266 30 275 q 30 283 34 289 q 37 295 41 300 q 44 306 47 312 q 51 318 51 327 l 51 342 q 51 352 49 375 q 47 398 45 425 q 43 451 42 475 q 40 498 39 507 q 38 523 30 536 q 22 549 22 565 q 22 597 35 609 q 48 622 80 622 q 87 622 91 616 q 96 610 102 610 l 105 610 q 108 611 114 613 q 120 614 122 614 q 204 649 250 669 q 296 688 319 697 q 343 706 351 707 q 359 708 365 705 q 377 703 381 698 q 386 692 386 682 q 386 672 383 662 q 380 652 369 647 l 241 586 l 237 582 l 130 536 q 124 534 123 526 q 122 519 122 514 q 122 506 124 485 q 126 465 128 443 q 130 421 132 404 q 135 387 136 387 l 137 387 q 137 387 138 388 q 148 396 172 415 q 195 434 220 453 q 244 473 263 488 q 281 503 282 503 q 293 503 302 492 q 311 481 311 470 q 311 458 306 443 q 301 429 290 421 l 138 285 q 138 285 138 280 q 138 275 137 270 q 137 264 137 257 q 137 251 137 247 q 137 212 142 177 q 146 143 146 107 l 150 107 q 151 107 159 115 q 167 123 171 128 q 173 131 180 141 q 188 150 205 173 q 223 195 252 232 q 281 270 327 326 q 331 330 338 338 q 346 346 348 346 q 351 349 360 348 q 369 348 373 346 q 378 344 386 335 q 394 326 394 318 q 394 307 381 288 q 369 269 353 248 q 336 228 319 208 q 303 189 294 178 q 280 156 261 125 q 242 95 220 67 q 197 39 170 19 q 144 -1 113 -1 q 99 -1 92 4 q 86 9 76 21 z"},"s":{"x_min":0,"x_max":402,"ha":402,"o":"m 170 37 q 170 42 170 46 q 171 50 175 54 q 187 68 201 84 q 216 101 229 117 q 243 133 255 150 q 267 168 274 186 l 274 191 l 146 165 l 132 165 q 118 165 98 167 q 78 169 59 175 q 40 182 27 193 q 14 205 14 225 q 15 247 37 274 q 60 302 90 328 q 120 354 151 377 q 182 399 200 412 q 221 424 249 431 q 277 438 301 438 q 320 438 335 431 q 350 424 350 402 q 350 394 348 386 q 347 378 336 375 q 305 378 277 371 q 250 363 226 349 q 201 334 180 314 q 158 294 138 272 q 132 266 123 253 q 114 241 114 239 l 114 238 q 140 238 165 243 q 189 248 214 253 q 239 259 264 264 q 289 269 315 269 q 325 269 337 267 q 349 266 359 261 q 369 256 375 248 q 382 239 382 227 q 382 208 373 191 q 363 174 345 150 q 327 126 299 92 q 271 58 233 4 q 231 1 224 0 q 217 -1 212 -1 q 198 -1 184 11 q 170 22 170 37 z"},">":{"x_min":0,"x_max":421,"ha":421,"o":"m 104 106 q 104 113 108 120 q 112 127 119 133 q 125 139 132 144 q 139 148 145 151 l 301 370 q 305 376 305 381 l 305 384 l 37 486 q 35 486 32 491 q 28 495 25 501 q 21 507 19 512 q 16 518 16 520 q 15 526 21 532 q 27 537 36 541 q 44 544 53 545 q 62 547 64 547 q 103 524 143 509 q 184 493 225 479 q 267 465 309 451 q 351 438 392 419 q 398 410 401 405 q 404 399 404 392 q 404 372 391 358 q 378 345 367 329 q 344 296 324 265 q 304 234 283 205 q 263 175 239 146 q 215 116 185 86 q 183 83 173 77 q 164 71 160 69 q 152 67 143 69 q 133 71 124 76 q 115 81 109 89 q 104 97 104 106 z"},"l":{"x_min":0,"x_max":149,"ha":149,"o":"m 30 68 q 30 109 32 148 q 34 188 34 229 q 31 340 32 447 q 33 554 22 666 q 22 685 31 691 q 40 697 58 697 q 80 697 96 684 q 112 671 113 647 q 111 509 117 373 q 122 236 122 97 l 122 21 q 116 14 105 6 q 95 -2 84 0 q 56 5 43 23 q 30 41 30 68 z"},"8":{"x_min":0,"x_max":322,"ha":322,"o":"m 94 103 q 94 144 104 177 q 114 210 128 247 l 128 260 q 113 271 98 285 q 83 298 68 313 q 54 329 42 345 q 29 361 21 379 q 20 381 19 390 q 18 398 17 400 l 17 402 q 17 430 32 457 q 48 483 72 505 q 97 526 125 540 q 152 553 178 553 q 203 549 224 537 q 244 524 256 506 q 268 488 270 466 q 271 444 260 421 q 258 414 251 396 q 245 379 238 359 q 230 339 224 321 q 217 304 214 297 q 211 288 210 289 q 210 290 210 282 l 210 276 q 225 258 240 240 q 256 222 269 203 q 281 184 290 163 q 298 142 298 117 q 298 95 288 74 q 277 53 261 37 q 244 21 223 10 q 201 0 180 0 q 157 0 141 9 q 125 18 114 32 q 104 46 99 64 q 94 83 94 103 z m 153 106 q 153 90 156 76 q 158 62 178 62 q 188 62 198 68 q 209 74 217 84 q 226 94 230 105 q 234 117 231 128 q 229 135 223 146 q 217 158 209 170 q 202 183 194 193 q 187 203 182 206 q 175 201 169 188 q 164 175 161 159 q 157 144 155 129 q 153 114 153 106 z m 86 410 q 86 402 96 389 q 105 375 118 361 q 131 347 143 336 q 154 326 159 326 l 161 326 q 178 354 192 395 q 206 436 206 470 l 206 478 q 204 479 196 480 q 188 482 186 482 q 168 482 156 480 q 145 479 136 474 q 127 469 119 460 q 110 451 99 437 q 95 432 90 425 q 86 418 86 410 z"},"\\":{"x_min":0,"x_max":550,"ha":550,"o":"m 10 858 l 10 859 q 10 876 24 885 q 38 895 52 895 q 68 895 79 887 q 89 880 97 866 l 514 90 q 527 75 533 64 q 538 54 538 35 q 538 18 530 8 q 521 -1 502 -1 q 490 -1 476 4 q 462 10 456 21 z"},"e":{"x_min":0,"x_max":435,"ha":435,"o":"m 431 277 q 429 260 426 250 q 424 240 418 232 q 412 225 401 216 q 391 208 372 193 q 354 178 326 153 q 299 129 260 90 q 244 75 228 60 q 211 44 193 32 q 175 20 155 12 q 136 4 114 4 q 72 4 53 32 q 33 61 33 98 q 33 122 35 139 q 36 155 42 182 q 31 191 23 199 q 16 206 16 219 q 16 230 21 234 q 26 238 34 240 q 41 241 48 243 q 55 245 58 251 q 60 257 65 272 q 70 288 76 305 q 82 322 87 337 q 93 353 95 358 q 102 375 110 392 q 118 409 129 423 q 141 437 156 445 q 171 454 191 454 q 203 454 220 443 q 237 433 253 417 q 269 402 279 386 q 290 369 290 357 q 290 343 283 331 q 276 318 266 308 q 256 298 244 289 q 232 280 223 272 q 222 272 219 271 q 216 269 214 268 q 213 267 209 263 q 206 260 202 256 q 198 252 195 248 q 191 244 190 243 q 188 240 179 234 q 171 228 161 220 q 151 213 143 207 q 135 200 132 198 l 128 190 q 126 187 125 173 q 123 160 121 144 q 119 127 118 110 q 116 93 116 82 q 116 81 117 80 q 119 78 120 78 q 128 78 135 85 q 142 92 149 95 l 306 239 l 346 301 q 351 308 365 316 q 379 324 394 325 q 408 325 419 315 q 431 306 431 277 z m 216 354 q 221 357 220 365 q 219 373 214 379 q 210 385 203 386 q 196 388 190 379 q 188 375 180 363 q 173 352 166 339 q 158 327 153 318 q 148 310 151 312 z"},"b":{"x_min":0,"x_max":375,"ha":375,"o":"m 25 326 l 25 328 q 25 336 31 344 q 36 353 42 358 l 42 408 q 42 489 40 566 q 37 644 29 726 q 29 738 38 745 q 47 751 57 751 q 84 756 98 738 q 112 721 118 690 q 124 660 124 623 q 124 585 123 550 q 121 515 121 487 q 121 460 128 450 q 141 455 141 455 q 142 454 141 454 q 141 453 143 456 q 146 458 161 470 q 183 486 211 491 q 240 495 266 495 q 325 486 349 458 q 372 431 369 390 q 366 350 341 300 q 316 251 279 199 q 242 146 197 95 q 152 44 110 -1 q 102 -1 90 2 q 79 5 69 11 q 60 17 53 25 q 46 34 46 46 l 46 301 z m 128 251 q 128 248 128 237 q 129 227 130 214 q 131 202 131 191 q 132 181 132 178 q 132 175 132 167 q 132 160 132 152 q 133 144 133 136 q 133 129 133 126 q 144 128 163 153 q 183 179 203 212 q 224 246 241 280 q 259 314 268 334 q 271 344 275 357 q 279 371 281 385 q 282 399 279 411 q 275 423 265 430 q 247 430 227 421 q 207 412 188 398 q 169 385 154 369 q 139 353 132 338 q 131 333 130 321 q 130 309 129 295 q 129 281 128 269 q 128 256 128 251 z"},"m":{"x_min":0,"x_max":567,"ha":567,"o":"m 37 318 q 35 344 33 370 q 30 396 25 421 q 25 442 40 448 q 54 454 70 454 l 90 454 q 104 447 110 438 q 116 428 118 416 q 120 404 120 392 q 119 379 120 367 q 121 362 121 351 q 121 339 122 326 q 122 313 124 303 q 125 292 128 289 l 214 450 q 220 461 231 468 q 242 476 256 474 q 277 472 288 465 q 299 459 303 449 q 308 438 308 424 q 309 409 310 392 q 310 386 311 370 q 312 354 313 336 q 314 318 316 303 q 317 287 318 281 l 322 281 q 324 288 330 308 q 335 327 342 349 q 349 370 354 390 q 360 409 363 417 q 364 419 367 425 q 370 432 373 439 q 376 446 379 453 q 382 459 383 462 q 390 473 397 473 q 404 474 413 474 q 438 474 451 461 q 464 449 470 431 q 477 412 479 390 q 482 368 486 350 q 487 350 487 348 q 487 347 486 346 l 540 62 q 544 58 544 55 q 545 52 545 47 q 545 36 535 26 q 524 16 514 16 q 499 16 480 26 q 461 37 458 54 l 413 285 l 408 293 q 406 288 400 265 q 394 242 385 208 q 376 173 365 130 q 354 87 342 42 q 340 33 331 29 q 321 24 314 24 q 294 24 281 29 q 269 34 262 44 q 255 54 252 67 q 249 81 247 99 q 247 103 245 126 q 243 150 241 181 q 238 212 235 243 q 232 274 231 293 q 231 297 231 299 q 231 301 231 302 q 231 304 230 306 q 229 309 227 314 l 198 247 l 153 82 l 144 21 q 143 16 138 11 q 134 7 128 4 q 122 2 116 1 q 110 0 106 0 q 85 0 70 16 q 55 31 54 50 q 53 57 52 77 q 51 97 49 124 q 47 151 45 182 q 44 212 42 239 q 40 267 39 287 q 37 308 37 314 l 37 318 z"},"#":{"x_min":0,"x_max":431,"ha":431,"o":"m 145 193 q 144 197 143 207 q 142 216 140 226 q 139 235 137 244 q 136 253 136 256 q 136 260 136 266 q 136 271 136 277 q 136 283 134 288 q 132 292 128 293 q 116 287 104 283 q 92 279 78 279 q 70 279 58 282 q 46 285 41 293 q 39 315 51 325 q 63 334 79 339 q 94 344 107 350 q 120 355 120 370 q 120 386 119 399 q 118 412 116 429 l 115 429 q 114 429 113 430 q 104 430 97 426 q 90 422 83 417 q 75 411 68 407 q 61 403 51 403 q 37 403 24 412 q 12 421 12 438 q 12 442 20 450 q 27 457 29 458 l 104 500 l 112 508 q 113 520 114 530 q 115 539 115 549 q 115 559 116 564 l 116 636 q 119 646 127 649 q 136 651 147 651 q 157 651 163 646 q 168 640 173 632 q 173 628 174 618 q 175 607 175 596 q 176 585 176 575 q 177 564 177 561 q 176 556 176 552 q 176 548 177 544 q 178 541 181 540 q 184 541 194 544 q 204 548 206 549 q 210 549 210 553 q 215 579 215 612 q 216 646 215 668 q 219 679 226 682 q 233 685 244 685 q 262 685 270 672 q 278 660 280 643 q 282 626 281 608 q 280 591 280 579 q 293 579 305 583 q 317 586 330 586 q 336 586 339 580 q 342 574 342 569 q 342 562 334 554 q 327 547 318 541 q 309 534 299 529 q 289 524 284 523 q 279 520 280 512 q 280 505 280 500 q 280 499 280 493 q 280 487 281 480 q 281 474 282 468 q 282 463 284 463 l 288 463 q 292 465 302 470 q 312 475 324 480 q 335 486 345 492 q 354 497 359 500 q 369 505 380 510 q 392 516 402 516 q 410 516 412 513 q 413 511 413 504 q 413 503 413 502 q 412 502 412 500 l 412 496 q 410 493 406 488 q 402 482 398 477 q 394 471 389 465 q 385 460 384 458 q 382 456 379 453 q 376 450 376 449 l 288 392 q 284 389 284 387 q 284 386 284 380 q 284 345 291 311 q 297 276 297 241 l 297 211 q 295 200 287 199 q 278 197 271 197 q 259 197 252 200 q 245 202 240 215 q 234 247 229 279 q 224 311 219 343 l 215 343 q 207 343 198 337 q 189 332 189 324 q 189 300 194 274 q 198 249 198 224 q 198 209 191 197 q 185 186 168 186 q 157 186 155 188 q 153 190 145 193 z m 177 451 q 177 448 177 439 q 177 431 178 421 q 179 411 180 404 q 182 397 185 399 l 215 417 l 215 482 q 215 487 208 487 q 208 487 206 486 q 203 484 191 479 q 180 473 177 471 z"},",":{"x_min":0,"x_max":130,"ha":130,"o":"m 18 -10 q 19 -6 21 10 q 23 26 26 45 q 29 64 32 81 q 35 97 35 101 q 36 107 37 116 q 38 124 41 131 q 44 138 50 142 q 56 146 65 146 q 84 146 95 138 q 106 130 106 110 q 106 107 106 103 q 106 98 105 97 q 104 91 102 77 q 100 62 97 47 q 94 31 92 17 q 90 3 89 -2 q 82 -11 81 -24 q 79 -38 77 -50 q 75 -62 69 -72 q 63 -81 47 -81 q 38 -81 33 -76 q 27 -70 24 -62 q 21 -55 19 -46 q 18 -37 18 -30 z"},"n":{"x_min":0,"x_max":404,"ha":404,"o":"m 301 33 q 287 53 278 87 q 269 122 260 161 q 252 199 245 236 q 238 272 231 294 q 224 316 215 319 q 206 322 194 293 l 109 31 q 104 18 98 12 q 91 7 75 7 q 67 7 59 9 q 50 12 42 17 q 34 21 29 28 q 23 35 22 44 q 25 56 28 87 q 30 118 31 159 q 32 200 33 246 q 33 291 33 331 q 32 370 31 399 q 30 428 29 437 q 29 446 30 457 q 30 467 33 476 q 35 484 42 490 q 48 495 62 495 q 80 495 96 479 q 112 464 112 446 q 112 421 110 396 q 107 371 107 346 q 107 330 107 319 q 107 309 111 293 q 114 301 121 320 q 128 340 136 361 q 145 383 151 402 q 158 421 161 429 q 168 448 182 466 q 195 484 218 486 q 232 487 245 479 q 257 470 266 456 q 274 441 280 426 q 286 411 289 400 l 342 157 l 383 46 q 384 45 384 41 q 384 36 384 34 q 384 22 378 11 q 373 0 359 0 q 343 0 325 9 q 308 19 301 33 z"},"h":{"x_min":0,"x_max":379,"ha":379,"o":"m 37 478 q 39 536 32 595 q 25 653 25 711 q 25 729 36 734 q 47 738 61 738 q 80 738 93 728 q 105 717 107 697 q 116 591 118 487 q 119 383 132 276 q 161 332 192 368 q 224 404 252 416 q 281 428 305 412 q 329 396 344 348 q 358 301 361 219 q 364 138 352 17 q 345 17 335 16 q 325 16 316 17 q 307 18 300 21 q 293 23 292 31 q 300 104 301 154 q 302 204 298 236 q 294 269 287 286 q 280 303 272 311 q 265 318 257 319 q 250 319 246 318 q 225 311 206 280 q 187 250 173 210 q 159 170 153 125 q 146 81 149 46 q 148 38 147 30 q 146 22 144 16 q 142 9 136 4 q 131 0 120 0 q 100 0 87 7 q 75 15 69 26 q 62 38 61 54 q 60 69 62 86 z"},"z":{"x_min":0,"x_max":734,"ha":734,"o":"m 122 39 q 122 41 123 45 q 123 49 124 50 l 264 314 q 267 321 271 333 q 275 346 279 358 q 283 370 286 380 q 289 390 289 392 l 289 402 q 257 402 219 387 q 181 372 144 361 q 106 351 74 356 q 42 361 21 402 q 21 414 35 421 q 49 429 58 429 q 60 429 70 427 q 80 425 82 425 q 110 428 139 437 q 167 445 195 454 q 223 463 250 469 q 278 476 306 474 q 317 474 332 473 q 346 473 358 469 q 370 466 379 457 q 388 448 388 433 q 388 419 383 404 q 379 390 371 379 l 256 111 l 256 103 l 326 136 l 330 136 l 648 235 l 664 235 q 672 235 682 234 q 692 232 701 229 q 710 226 716 219 q 722 212 722 201 q 724 188 706 179 q 688 169 656 160 q 624 150 580 140 q 535 130 483 115 q 432 100 375 78 q 317 57 260 25 q 257 26 245 22 q 233 19 219 13 q 205 8 192 3 q 179 -1 173 -1 q 157 -1 140 10 q 122 21 122 39 z"},"B":{"x_min":0,"x_max":503,"ha":503,"o":"m 86 198 q 84 239 82 284 q 79 329 74 371 q 70 371 62 372 q 53 372 44 375 q 35 378 28 382 q 21 387 21 394 q 21 404 27 416 q 32 427 40 437 q 48 447 56 456 q 64 464 70 470 l 70 618 q 70 631 83 637 q 96 644 106 644 q 134 644 142 631 q 149 618 150 602 q 151 586 151 571 q 150 557 161 553 q 179 562 194 571 q 210 581 225 589 q 240 597 256 602 q 272 606 291 606 q 300 606 310 604 q 320 603 329 598 q 338 594 344 586 q 350 579 350 567 q 350 546 344 528 q 338 510 329 493 q 320 476 311 459 q 301 442 293 425 q 297 425 308 423 q 318 422 330 421 q 342 420 353 418 q 363 417 367 417 q 383 414 404 407 q 425 400 443 389 q 461 377 474 361 q 486 345 486 324 q 486 302 478 279 q 470 257 458 239 q 454 233 446 223 q 438 212 431 201 q 423 190 417 182 q 410 174 409 173 l 223 12 q 213 4 206 1 q 199 -1 189 -1 q 183 -1 169 0 q 156 2 143 5 q 129 8 119 13 q 108 18 107 25 l 86 190 z m 182 86 l 183 86 q 188 86 197 89 q 207 92 210 95 q 214 98 223 105 q 232 113 243 122 q 254 131 263 139 q 272 146 277 149 q 294 163 317 183 q 340 202 360 224 q 381 246 395 270 q 409 293 409 315 q 409 330 399 338 q 390 347 375 352 q 361 356 346 358 q 331 359 320 359 q 300 359 282 353 q 265 346 249 335 q 233 324 219 311 q 205 298 190 285 q 188 282 182 279 q 177 276 172 272 q 167 269 164 265 q 160 261 161 256 z m 256 528 q 254 527 249 524 q 244 521 239 518 q 234 514 229 511 q 225 508 223 507 q 223 507 212 499 q 202 491 190 481 q 178 472 167 463 q 157 455 157 454 l 157 379 l 161 379 q 161 379 167 386 q 173 393 181 402 q 189 411 197 421 q 205 431 210 437 q 213 441 221 452 q 229 463 231 466 q 234 472 239 480 q 244 489 249 498 q 253 506 256 512 q 260 519 260 519 l 260 528 z"},"K":{"x_min":0,"x_max":578,"ha":578,"o":"m 74 140 q 63 145 54 155 q 45 166 45 177 q 45 190 53 200 q 62 210 62 224 q 62 246 56 269 q 51 291 54 314 l 25 590 l 25 592 q 25 604 35 616 q 45 629 58 627 q 61 627 66 625 q 71 624 78 622 q 85 619 90 616 q 96 613 99 610 q 101 608 105 599 q 110 589 111 586 q 119 558 119 523 q 118 488 120 458 q 121 447 123 424 q 124 401 126 378 q 129 355 132 338 q 135 321 138 321 l 140 322 q 189 372 227 425 q 265 479 289 544 q 289 546 291 552 q 293 558 295 564 q 297 570 298 577 q 300 583 301 586 q 301 586 302 592 q 303 598 305 604 q 307 610 309 616 q 312 622 314 622 l 359 622 q 366 622 371 617 q 375 612 378 605 q 381 599 382 592 q 383 586 383 582 q 383 581 381 578 q 380 574 379 573 l 379 565 q 371 538 362 516 q 354 493 343 472 q 333 450 320 429 q 308 407 293 383 q 288 375 277 366 q 267 356 264 346 l 174 239 l 161 214 l 165 214 q 207 225 246 229 q 284 234 322 236 q 360 238 399 238 q 438 238 482 239 q 483 239 489 240 q 495 240 501 241 q 507 242 512 243 q 518 243 520 243 l 528 243 q 539 243 552 239 q 565 235 569 222 q 573 211 566 199 q 559 187 549 182 q 546 181 539 180 q 531 179 523 177 q 516 176 509 174 q 502 173 499 173 l 486 173 q 466 172 435 172 q 404 172 376 171 q 343 170 306 169 l 161 140 l 161 134 q 161 112 167 92 q 174 71 174 50 q 174 30 164 15 q 154 0 132 0 q 120 0 106 13 q 93 25 90 37 l 74 140 z"},"R":{"x_min":0,"x_max":750,"ha":750,"o":"m 74 227 q 68 239 65 247 q 62 255 62 266 q 62 274 64 282 q 66 289 66 298 q 66 319 65 338 q 63 356 62 379 q 61 382 55 384 q 49 386 42 389 q 35 393 30 399 q 24 406 24 419 q 24 431 30 439 q 35 447 41 455 q 47 462 52 470 q 58 479 58 490 q 58 495 57 508 q 56 521 55 536 q 55 551 54 564 q 54 577 54 582 l 54 584 l 54 586 q 58 595 60 601 q 62 606 65 609 q 68 612 73 614 q 78 615 86 615 q 106 615 116 607 q 126 600 130 589 q 134 579 135 570 q 136 562 140 561 l 210 622 l 214 622 q 248 645 286 657 q 324 669 366 669 q 379 669 397 666 q 415 663 431 656 q 447 648 458 637 q 470 625 470 607 q 470 588 465 567 q 460 547 452 527 q 443 507 432 489 q 421 471 408 458 q 403 447 346 403 q 288 359 174 272 l 643 243 q 652 242 669 242 q 687 241 703 238 q 719 235 730 227 q 742 219 742 202 q 742 193 740 188 q 737 183 734 179 q 730 176 726 173 q 722 170 718 165 l 701 165 l 685 165 q 665 167 644 170 q 623 173 595 177 q 567 181 530 185 q 493 188 441 191 q 390 194 321 196 q 252 198 161 198 q 160 198 159 195 q 157 192 157 190 q 157 153 164 118 q 170 82 170 47 q 170 40 168 32 q 167 23 163 16 q 159 9 153 4 q 147 -1 139 -1 q 133 -1 125 1 q 117 4 110 9 q 103 14 97 20 q 91 25 90 33 z m 140 442 q 140 418 141 396 q 142 375 144 350 l 146 350 q 147 350 151 352 q 155 354 171 364 q 187 374 219 396 q 251 418 310 458 q 321 465 335 481 q 349 498 360 518 q 372 537 380 556 q 388 575 388 588 q 388 598 378 598 q 369 598 362 598 q 348 598 329 593 q 311 588 285 573 q 259 559 223 531 q 188 504 140 458 z"},"T":{"x_min":0,"x_max":438,"ha":438,"o":"m 213 429 q 212 437 210 449 q 209 461 208 472 q 206 483 205 491 q 204 499 204 499 l 196 499 l 85 466 q 80 458 69 458 q 58 458 52 458 q 38 458 24 470 q 10 482 10 497 q 10 508 17 518 q 24 528 35 532 l 192 582 q 195 593 204 604 q 212 615 226 615 q 239 615 249 608 q 258 602 270 598 q 278 599 299 604 q 319 608 342 614 q 365 619 386 624 q 406 629 414 631 q 426 633 432 636 q 438 639 450 639 q 467 639 484 629 q 502 619 502 600 q 502 587 493 578 q 484 568 472 565 l 286 519 l 286 510 q 286 479 292 450 q 297 421 295 392 l 328 90 l 328 68 q 328 57 328 44 q 327 32 324 22 q 320 13 312 6 q 305 0 289 0 q 277 0 264 10 q 251 20 250 33 l 213 421 z"},"P":{"x_min":0,"x_max":514,"ha":514,"o":"m 138 194 q 139 214 137 233 q 136 253 134 272 q 133 277 131 288 q 130 299 130 301 q 130 302 128 305 q 126 309 126 310 l 128 312 q 131 314 130 314 l 130 503 l 126 503 q 114 489 99 474 q 83 458 62 458 q 46 458 32 469 q 18 479 18 497 l 18 499 q 18 500 19 502 q 20 504 21 506 q 21 509 22 511 l 132 606 l 132 660 q 132 670 144 675 q 155 681 163 681 q 176 681 187 674 q 197 668 208 668 q 218 668 226 674 q 233 680 241 685 q 278 707 313 719 q 348 730 391 730 q 409 730 435 727 q 461 724 485 715 q 509 706 525 690 q 542 675 542 650 q 542 606 524 566 q 507 526 476 495 q 435 456 399 425 q 363 395 319 363 q 318 362 317 361 q 316 359 315 358 l 221 293 q 216 289 216 279 q 216 269 216 266 q 216 237 219 209 q 223 182 227 153 q 230 125 234 97 q 237 68 237 40 q 237 24 230 12 q 223 0 204 0 q 190 0 175 11 q 160 22 158 37 z m 216 383 l 394 519 q 405 527 417 542 q 430 556 440 572 q 450 588 457 605 q 464 623 464 639 q 464 648 456 654 q 447 659 437 662 q 426 664 415 664 q 403 664 396 664 q 353 664 316 644 q 279 624 246 602 q 244 600 238 596 q 232 593 227 588 q 221 584 216 580 q 212 576 212 573 l 212 388 z"},"|":{"x_min":0,"x_max":161,"ha":161,"o":"m 21 889 q 21 908 29 912 q 36 916 53 916 q 75 916 85 907 q 95 897 103 878 q 113 751 117 625 q 121 499 124 371 q 126 295 125 216 q 123 138 136 62 q 141 57 141 51 q 141 46 141 41 q 141 21 127 11 q 113 0 97 0 q 86 0 77 5 q 68 11 62 20 q 55 28 51 39 q 47 49 46 58 q 46 61 46 72 q 46 83 46 95 q 46 107 46 118 q 46 129 46 132 q 44 254 43 374 q 42 493 38 614 q 35 684 28 752 q 21 820 21 889 z"},"t":{"x_min":0,"x_max":431,"ha":431,"o":"m 116 285 q 103 285 92 278 q 81 271 66 271 q 64 271 56 272 q 48 272 46 272 q 42 277 37 280 q 32 283 27 287 q 22 290 19 295 q 16 300 16 309 q 16 323 27 333 q 39 342 55 349 q 70 355 86 361 q 103 367 112 375 l 112 418 q 112 490 105 563 q 99 636 99 707 q 99 727 108 732 q 118 738 135 738 q 154 738 164 727 q 173 716 177 700 q 181 684 181 666 q 181 647 182 635 q 182 622 184 590 q 186 558 188 521 q 189 485 191 453 q 193 421 194 408 q 198 409 209 414 q 221 418 233 422 q 246 427 257 431 q 269 435 273 437 q 299 447 326 460 q 354 474 382 474 q 401 474 412 460 q 422 447 422 430 q 422 417 412 411 q 402 405 392 400 l 214 334 q 211 332 208 331 q 205 329 202 326 l 202 295 q 202 261 204 224 q 205 188 210 153 q 215 124 221 96 q 227 67 227 38 q 227 29 221 15 q 215 0 202 0 q 176 0 159 16 q 143 31 141 58 q 136 108 130 169 q 125 229 120 285 z"},"M":{"x_min":0,"x_max":571,"ha":571,"o":"m 33 29 q 31 138 28 246 q 24 354 24 462 q 24 470 24 490 q 24 510 25 532 q 25 555 25 574 q 25 594 25 602 q 29 617 37 626 q 45 636 62 636 q 78 636 91 625 q 104 615 111 602 l 252 330 q 253 328 259 318 q 265 309 268 305 q 269 304 271 303 q 272 302 272 301 l 276 310 l 359 602 q 368 615 373 632 q 377 649 382 666 q 388 683 396 697 q 404 712 421 722 l 429 722 q 455 722 468 707 q 480 691 485 669 q 490 647 490 624 q 489 600 490 582 q 490 575 492 556 q 493 536 495 510 q 497 483 499 454 q 501 424 502 397 q 504 371 505 352 q 507 332 507 326 l 507 322 q 508 313 511 293 q 514 272 517 250 q 521 227 523 206 q 526 186 528 178 q 529 173 532 163 q 534 153 538 142 q 541 131 544 121 q 547 111 549 107 q 545 85 538 73 q 530 61 506 61 q 503 61 497 61 q 491 62 490 62 q 487 63 479 71 q 471 79 470 82 l 454 136 l 425 358 l 425 367 q 424 385 424 405 q 424 425 423 445 q 423 466 421 486 q 419 507 413 524 l 408 519 l 338 235 q 337 225 336 212 q 335 200 331 189 q 327 178 319 170 q 312 162 297 161 q 291 160 284 163 q 277 166 271 171 q 264 176 258 182 q 253 188 252 194 l 128 392 l 107 433 l 107 349 q 107 289 110 232 q 112 175 112 115 q 112 110 112 98 q 112 86 112 72 q 111 59 111 46 q 111 34 111 29 q 107 18 100 9 q 93 0 79 0 q 61 0 50 6 q 40 13 33 29 z"},"g":{"x_min":0,"x_max":406,"ha":406,"o":"m 70 -341 q 66 -330 71 -316 q 75 -303 89 -299 q 111 -309 136 -312 q 160 -314 185 -312 q 210 -311 234 -305 q 259 -299 281 -291 q 304 -272 312 -243 q 321 -213 319 -162 q 317 -110 306 -34 q 295 43 277 154 q 277 157 278 163 q 278 169 277 174 q 276 180 274 183 q 271 186 268 183 q 255 158 238 129 q 221 101 199 76 q 177 51 150 34 q 123 18 90 18 q 61 18 39 35 q 17 52 17 84 q 17 108 27 146 q 37 183 55 224 q 72 266 96 307 q 119 348 145 381 q 170 414 196 435 q 223 456 247 456 q 257 456 273 453 q 289 449 304 442 q 319 436 331 427 q 342 418 342 406 l 342 327 l 405 -134 q 405 -173 404 -208 q 402 -244 391 -274 q 380 -305 355 -328 q 331 -352 285 -366 q 279 -369 261 -371 q 242 -373 218 -374 q 194 -375 167 -374 q 141 -373 119 -370 q 97 -366 83 -359 q 69 -353 70 -341 z m 223 369 q 213 358 197 335 q 181 312 164 283 q 147 255 131 224 q 115 193 105 167 q 96 141 93 122 q 91 104 102 100 q 122 110 146 135 q 169 160 190 191 q 211 222 227 254 q 243 287 250 313 q 256 340 250 356 q 245 372 223 369 z"},"j":{"x_min":0,"x_max":196,"ha":196,"o":"m -113 -161 q -113 -133 -107 -121 q -102 -108 -93 -108 q -84 -107 -73 -115 q -62 -123 -48 -133 q -35 -143 -22 -152 q -9 -161 4 -163 q 31 -163 49 -144 q 66 -125 77 -98 q 87 -71 90 -42 q 94 -13 94 7 q 94 9 94 13 q 94 18 92 32 q 91 47 89 76 q 87 104 83 153 q 78 202 72 276 q 65 350 56 455 q 56 470 63 479 q 70 489 86 489 q 105 489 118 484 q 131 479 142 460 q 142 448 143 434 q 144 420 146 398 q 147 376 151 343 q 154 311 159 263 q 163 216 168 150 q 174 84 180 -4 q 180 -36 174 -70 q 169 -104 155 -135 q 142 -166 118 -190 q 95 -214 60 -225 q 54 -223 48 -226 q 42 -229 36 -229 q 17 -229 -6 -225 q -28 -221 -50 -213 q -71 -205 -88 -192 q -105 -179 -113 -161 z m 10 711 q 10 727 22 732 q 34 737 46 737 q 64 737 81 727 q 98 716 98 693 q 98 681 84 675 q 71 670 62 670 q 55 670 46 673 q 37 677 29 683 q 21 688 15 696 q 10 703 10 711 z"},"i":{"x_min":0,"x_max":169,"ha":169,"o":"m 68 37 q 59 135 52 204 q 45 273 40 320 q 35 367 32 395 q 28 423 26 437 q 24 451 23 456 q 22 461 22 462 l 22 466 q 22 477 32 484 q 41 491 51 491 q 65 491 83 486 q 100 481 105 466 q 114 418 118 369 q 121 320 124 272 q 126 224 130 175 q 135 126 146 78 q 146 76 148 70 q 149 64 151 58 q 152 51 153 45 q 154 39 154 37 l 154 35 q 154 34 155 33 q 155 21 145 10 q 134 -2 122 0 q 119 1 108 3 q 97 6 93 8 q 90 9 85 12 q 80 16 76 20 q 71 23 68 28 q 65 33 68 37 z m 14 749 q 14 756 25 761 q 36 767 42 767 q 57 767 75 758 q 93 750 93 733 q 93 717 88 711 q 84 705 67 705 q 50 705 32 717 q 14 729 14 749 z"},"y":{"x_min":0,"x_max":334,"ha":334,"o":"m 218 -269 q 216 -248 215 -219 q 215 -189 215 -157 q 215 -125 215 -92 q 216 -59 218 -31 l 218 4 q 213 11 206 18 q 199 25 182 47 q 165 69 134 113 q 103 156 50 234 q 29 256 23 270 q 18 284 20 293 q 21 302 30 306 q 38 310 46 310 q 65 310 81 301 q 97 292 109 278 q 122 265 132 249 q 143 232 152 218 q 158 209 167 195 q 176 182 185 168 q 193 155 200 146 q 206 136 206 136 l 218 123 l 218 226 q 218 274 216 321 q 214 367 214 415 q 214 429 224 438 q 233 446 247 445 q 264 443 272 439 q 280 436 289 424 q 297 413 296 398 q 296 384 297 370 q 301 277 303 185 q 306 93 306 0 q 305 -9 305 -36 q 305 -62 305 -97 q 306 -131 306 -168 q 307 -205 307 -236 q 308 -267 308 -287 q 309 -307 310 -306 q 310 -320 299 -327 q 289 -334 274 -334 q 255 -334 246 -329 q 236 -323 231 -314 q 227 -305 225 -293 q 223 -281 218 -269 z"},"@":{"x_min":0,"x_max":744,"ha":744,"o":"m 21 186 q 21 222 37 271 q 53 320 79 374 q 105 427 142 479 q 178 530 218 571 q 258 612 301 638 q 344 663 385 663 q 416 663 436 644 q 456 625 468 594 q 480 563 486 526 q 492 488 494 451 q 496 413 496 380 q 495 347 495 326 q 495 304 491 278 q 487 253 477 231 q 466 209 448 195 q 430 181 402 181 q 365 181 348 203 q 330 225 318 256 q 314 265 314 269 q 314 272 310 281 q 309 280 307 279 q 306 277 306 276 q 297 260 287 242 q 276 224 263 208 q 250 192 233 183 q 216 173 194 173 q 174 173 159 188 q 144 203 144 223 q 144 252 155 280 q 167 309 185 334 q 203 359 224 382 q 245 405 264 425 q 277 438 299 450 q 321 462 338 462 q 359 462 373 449 q 387 437 400 421 q 400 418 401 408 q 401 398 401 396 q 401 368 396 341 q 392 314 392 286 q 392 279 394 268 q 396 256 404 251 q 415 260 420 273 q 426 286 428 301 q 430 316 430 331 q 430 346 430 357 q 432 390 434 426 q 436 462 432 493 q 429 524 416 548 q 402 571 375 578 q 347 578 315 557 q 283 535 254 504 q 225 473 201 438 q 177 404 165 379 q 162 372 154 354 q 146 335 138 314 q 129 293 122 274 q 114 255 111 247 q 108 237 106 230 q 104 224 104 217 q 103 211 103 205 q 103 198 103 189 q 103 154 117 130 q 131 106 154 91 q 177 75 206 68 q 235 62 266 62 l 285 62 q 292 62 305 65 q 318 68 332 71 q 345 73 355 75 q 365 77 367 78 l 602 190 q 612 195 622 206 q 632 216 642 226 q 652 236 663 244 q 674 252 686 252 q 698 252 714 245 q 730 238 730 223 q 730 214 725 206 q 720 197 711 189 q 703 182 695 175 q 687 169 681 165 q 675 161 665 154 q 655 147 645 141 q 635 134 627 129 q 619 124 618 124 q 610 119 590 109 q 570 100 547 88 q 524 77 503 67 q 482 58 474 54 q 462 51 452 44 q 441 37 429 33 q 385 20 345 10 q 305 0 258 0 q 218 0 176 12 q 135 23 100 47 q 65 70 43 105 q 21 140 21 186 z m 228 303 q 221 287 221 280 q 221 272 225 272 q 229 272 238 278 q 246 284 256 295 q 285 325 290 339 q 294 353 285 352 q 276 351 259 337 q 242 324 228 303 z"},".":{"x_min":0,"x_max":126,"ha":126,"o":"m 21 37 q 21 51 32 62 q 42 74 56 74 q 72 74 83 65 q 93 57 103 46 l 103 43 q 103 26 91 13 q 80 0 62 0 q 49 0 35 12 q 21 23 21 37 z"},"p":{"x_min":0,"x_max":412,"ha":412,"o":"m 54 176 q 35 183 20 192 q 5 202 5 225 q 5 230 8 232 q 11 234 13 238 q 15 241 21 249 q 26 257 33 266 q 40 275 46 284 q 52 292 54 295 q 54 308 52 326 q 51 344 53 360 q 56 376 64 387 q 73 398 94 398 q 105 398 113 390 q 121 382 133 382 l 137 382 q 177 413 219 437 q 262 461 314 461 q 349 461 371 441 q 393 421 393 385 q 393 340 372 292 q 352 244 321 199 q 290 153 254 113 q 219 73 189 44 q 187 40 181 36 q 175 31 170 26 q 164 21 157 15 l 149 -210 q 149 -219 149 -229 q 148 -238 145 -247 q 142 -255 135 -260 q 129 -266 117 -266 q 111 -266 102 -263 q 92 -261 83 -256 q 74 -251 68 -244 q 62 -237 62 -229 z m 145 114 l 148 114 q 149 114 155 120 q 160 126 167 134 q 175 142 182 150 q 189 158 193 163 q 223 185 247 217 q 271 249 287 282 q 302 314 305 341 q 309 367 296 377 q 284 388 254 375 q 225 362 174 316 q 162 307 152 294 q 143 281 141 266 z"},"X":{"x_min":0,"x_max":456,"ha":456,"o":"m 198 165 q 197 163 192 155 q 188 146 186 144 q 178 133 171 111 q 165 90 156 69 q 147 48 136 32 q 124 16 107 16 q 102 16 93 18 q 85 21 78 25 q 71 29 66 36 q 62 42 62 49 q 62 62 68 72 q 74 82 74 95 l 136 222 q 137 224 138 229 q 140 233 141 235 l 141 238 l 141 239 q 121 267 102 297 q 83 328 67 354 q 52 381 41 401 q 29 421 25 429 q 18 438 18 449 q 18 460 23 468 q 28 477 38 482 q 48 487 60 487 q 76 487 86 481 q 96 476 103 462 q 119 427 136 395 q 152 362 174 330 l 175 330 q 181 337 186 351 q 191 364 198 391 q 204 417 214 458 q 224 499 239 561 q 241 569 251 578 q 262 586 270 586 l 273 586 q 287 583 295 582 q 303 580 307 577 q 311 573 312 565 q 313 558 314 543 q 313 528 308 504 q 303 479 295 450 q 288 421 279 390 q 271 358 262 332 q 253 305 246 284 q 239 264 235 256 l 235 247 l 425 58 q 431 52 432 46 q 434 41 434 34 q 434 19 424 9 q 415 0 400 0 q 387 0 372 7 q 356 15 346 25 l 206 165 z"},"*":{"x_min":0,"x_max":427,"ha":427,"o":"m 58 182 q 64 187 71 191 q 77 196 84 201 q 64 196 47 196 q 14 196 14 230 q 14 239 17 246 q 21 253 18 262 q 21 263 31 264 q 41 266 43 266 l 76 266 q 86 268 100 271 q 114 274 128 277 q 111 294 90 308 q 69 321 55 341 q 36 366 62 388 q 69 393 77 395 q 84 397 90 405 q 93 403 100 396 q 107 389 109 387 q 109 386 112 382 q 115 379 119 375 q 122 370 125 366 q 128 362 129 362 q 136 354 147 344 q 159 334 170 325 l 183 464 q 185 480 190 483 q 196 486 210 486 q 212 486 217 486 q 223 485 225 485 q 232 479 238 469 l 238 434 q 238 405 237 378 q 235 351 234 322 l 350 397 q 363 405 370 402 q 376 399 384 389 q 386 387 388 382 q 391 378 392 377 q 394 365 387 357 q 384 354 373 346 q 362 337 359 335 q 354 331 350 328 q 346 325 341 322 l 378 328 q 386 326 392 325 q 398 324 403 322 q 408 319 411 314 q 414 309 414 298 l 414 295 q 405 286 396 283 q 386 279 375 277 q 365 274 355 271 q 346 269 336 262 l 268 245 l 362 160 q 368 146 372 136 q 376 125 360 112 q 359 112 358 111 q 347 112 337 118 q 328 123 320 130 q 312 137 304 143 q 295 149 284 153 l 234 191 q 237 174 240 156 q 242 139 242 122 q 242 104 229 92 q 217 81 199 81 l 196 81 l 175 102 q 176 124 176 148 q 176 172 172 195 q 158 182 144 168 q 130 154 115 142 q 101 131 84 133 q 67 136 57 150 l 54 153 l 58 182 z"},"Y":{"x_min":0,"x_max":414,"ha":414,"o":"m 221 -6 q 222 -1 223 13 q 225 26 227 42 q 229 57 231 70 q 233 83 234 89 q 239 133 247 176 q 254 220 254 264 l 254 278 l 238 286 q 234 288 219 299 q 203 310 184 323 q 165 337 146 351 q 128 365 118 374 q 112 378 99 389 q 86 400 72 414 q 58 427 45 439 q 32 451 27 456 q 20 464 13 474 q 6 484 6 495 q 6 512 19 519 q 31 526 46 526 q 56 526 66 524 q 77 521 85 514 q 122 473 168 432 q 214 391 262 361 l 266 374 l 307 638 q 309 648 319 651 q 329 654 338 654 q 363 654 376 642 q 390 630 390 602 l 390 600 q 390 599 388 595 q 387 591 385 586 q 384 581 383 577 q 382 572 382 571 q 379 560 374 526 q 369 492 363 446 q 357 399 351 344 q 344 288 337 232 q 330 176 323 124 q 316 71 311 31 q 312 21 312 9 q 312 -4 309 -16 q 305 -27 296 -35 q 288 -43 273 -43 q 255 -43 241 -33 q 227 -23 221 -6 z"},"c":{"x_min":0,"x_max":346,"ha":346,"o":"m 22 117 q 16 146 23 187 q 30 227 46 267 q 62 308 86 344 q 110 380 137 401 q 164 423 192 425 q 220 428 245 400 q 245 399 246 396 q 247 392 248 379 q 249 367 250 345 q 250 323 250 285 q 251 283 252 279 q 254 274 254 272 q 251 262 243 252 q 234 243 222 243 q 205 243 195 249 q 185 254 180 274 q 182 277 181 287 q 180 296 177 308 q 175 319 173 331 q 171 343 171 350 q 170 350 168 348 q 167 347 166 346 q 149 316 135 281 q 121 245 114 208 q 106 172 109 136 q 111 100 130 70 q 144 70 155 82 q 167 93 175 103 q 191 122 208 143 q 224 163 237 186 q 243 195 246 203 q 249 211 253 216 q 258 221 265 224 q 271 227 285 227 q 301 227 314 219 q 328 212 328 195 q 328 173 308 139 q 288 105 259 74 q 230 43 198 21 q 166 -1 142 -1 q 118 -1 96 8 q 74 18 58 33 q 42 49 32 70 q 22 92 22 117 z"},"!":{"x_min":0,"x_max":118,"ha":118,"o":"m 18 33 q 18 43 25 52 q 32 61 39 66 l 55 66 q 71 66 83 59 q 94 52 94 34 q 94 28 90 22 q 86 16 80 10 q 73 5 65 2 q 58 -1 51 0 q 41 2 29 12 q 18 21 18 33 z m 18 358 q 18 369 18 377 q 19 386 22 396 l 22 730 q 22 733 27 737 q 31 740 37 743 q 42 746 47 748 q 53 750 55 750 q 71 750 80 738 q 88 727 93 714 q 93 706 92 688 q 92 670 92 650 q 92 630 92 611 q 93 593 93 586 q 93 581 93 565 q 94 549 95 530 q 96 511 96 494 q 97 478 97 474 q 97 469 96 453 q 96 438 95 419 q 95 401 94 384 q 93 366 93 358 q 91 341 83 327 q 75 313 55 313 q 33 313 25 325 q 18 337 18 358 z"},"/":{"x_min":0,"x_max":260,"ha":260,"o":"m 20 -28 q 24 19 32 60 q 40 102 49 148 l 49 156 l 188 878 q 191 895 199 901 q 207 907 224 907 l 226 907 q 244 897 250 891 q 255 885 255 865 q 255 854 252 841 q 249 828 247 816 q 246 813 244 803 q 241 792 238 779 q 235 767 233 756 q 230 745 229 742 l 229 738 l 119 186 q 110 130 100 75 q 90 20 82 -36 q 79 -48 70 -53 q 61 -59 50 -59 q 39 -59 29 -51 q 20 -44 20 -31 z"},"[":{"x_min":0,"x_max":402,"ha":402,"o":"m 46 -41 q 46 -1 50 38 q 54 77 54 117 q 54 153 51 189 q 48 226 46 262 q 44 309 44 354 q 44 400 42 447 q 39 495 37 547 q 34 600 29 645 q 27 661 24 677 q 21 692 21 709 l 21 716 q 22 719 30 727 q 38 734 42 736 q 56 743 77 745 q 98 747 111 753 q 146 768 179 783 q 212 798 243 814 q 246 822 257 822 q 268 822 275 822 q 302 822 302 798 q 302 788 296 780 q 290 772 282 767 q 273 761 264 756 q 255 752 248 749 l 107 687 l 104 683 l 104 669 l 104 649 q 114 485 125 322 q 137 159 132 -6 q 131 -9 132 -15 q 134 -21 136 -23 l 143 -23 l 149 -23 l 318 52 q 324 50 331 53 q 337 57 344 57 q 360 57 372 49 q 384 42 384 24 q 384 19 383 10 q 382 1 375 -2 l 111 -109 q 108 -110 105 -110 l 98 -110 q 66 -110 56 -90 q 46 -69 46 -41 z"},"6":{"x_min":0,"x_max":318,"ha":318,"o":"m 67 -57 q 67 -36 74 -17 q 80 2 80 21 q 80 28 76 34 q 72 39 66 44 q 61 50 55 55 q 50 61 47 66 q 33 89 28 114 q 22 139 22 164 l 22 170 q 41 265 54 324 q 67 384 76 418 q 84 453 89 469 q 94 484 96 491 q 100 501 104 512 q 109 523 115 532 q 121 541 130 547 q 139 553 152 553 q 165 553 174 542 q 183 531 183 518 q 188 527 184 516 q 180 504 171 477 q 163 449 151 411 q 140 372 129 330 q 118 287 109 244 q 101 200 99 163 q 99 158 99 144 q 100 129 100 124 q 102 118 104 110 q 106 103 112 99 q 114 103 120 112 q 125 121 131 132 q 137 143 142 152 q 147 161 150 166 q 157 178 171 194 q 185 211 201 226 q 217 241 234 252 q 252 264 267 264 q 278 264 286 258 q 294 253 298 244 q 303 235 305 225 q 307 214 307 204 q 307 172 295 141 q 284 109 264 83 q 244 57 217 37 q 190 18 158 9 q 155 -2 148 -17 q 141 -32 141 -43 q 141 -52 143 -60 q 146 -68 146 -77 q 146 -94 135 -104 q 124 -115 107 -115 q 95 -115 87 -109 q 79 -104 75 -95 q 70 -86 69 -76 q 67 -65 67 -57 z m 206 129 q 191 110 190 102 q 188 93 193 91 q 198 90 207 94 q 216 98 223 104 q 239 118 243 134 q 246 149 242 157 q 237 165 228 160 q 218 155 206 129 z"},"r":{"x_min":0,"x_max":349,"ha":349,"o":"m 66 42 q 64 77 60 136 q 56 195 50 259 q 45 322 39 379 q 33 436 29 467 q 29 479 41 483 q 53 487 63 487 q 77 487 92 479 q 107 472 111 458 q 111 454 112 444 q 113 434 114 423 q 114 412 115 402 q 116 392 116 388 q 116 382 116 379 q 116 376 116 374 q 116 371 117 368 q 118 365 120 358 q 122 360 125 363 q 127 366 128 367 q 144 390 158 407 q 173 424 188 439 q 204 454 223 471 q 242 488 268 511 q 273 516 276 518 q 279 521 282 522 q 284 523 287 524 q 290 524 295 524 q 312 524 329 513 q 346 502 346 482 q 346 476 341 468 q 336 461 329 455 q 322 448 315 443 q 308 438 302 437 q 276 414 248 385 q 220 356 195 323 q 171 290 155 254 q 140 218 140 182 q 140 148 145 116 q 149 84 149 51 l 149 17 q 142 9 136 4 q 130 -1 119 -1 q 103 -1 87 13 q 71 27 66 42 z"},"2":{"x_min":0,"x_max":466,"ha":466,"o":"m 80 37 q 80 45 82 49 q 83 53 89 62 q 115 103 142 144 q 169 186 191 229 q 213 272 227 318 q 240 364 240 414 q 211 414 188 396 q 166 379 146 357 q 125 336 105 318 q 86 301 63 301 q 57 301 49 302 q 41 304 34 307 q 27 311 22 317 q 18 323 18 332 l 18 334 q 23 347 34 359 q 45 371 58 382 q 70 394 83 403 q 96 413 105 421 q 119 433 137 445 q 154 458 173 469 q 192 480 213 488 q 233 495 254 495 q 289 495 303 473 q 316 451 316 417 q 316 353 294 291 q 272 229 241 173 l 241 169 l 216 124 l 225 124 q 266 147 313 164 q 360 180 406 190 l 410 190 q 428 190 439 185 q 451 179 451 157 q 451 143 443 132 q 436 130 423 126 q 411 122 402 124 l 307 90 l 150 8 q 135 0 119 0 q 105 0 93 11 q 80 22 80 37 z"},"{":{"x_min":0,"x_max":382,"ha":382,"o":"m 152 43 q 155 82 160 121 q 164 160 165 200 q 166 239 162 278 q 158 317 144 355 q 133 352 123 345 q 112 339 102 333 q 92 327 81 323 q 70 318 59 318 q 42 318 27 329 q 12 340 12 359 q 12 368 22 377 q 32 386 46 395 q 60 403 72 411 q 85 419 90 425 q 100 438 101 455 q 103 473 103 486 q 95 523 92 567 q 90 610 95 654 q 101 697 114 739 q 128 780 152 813 q 176 846 210 868 q 245 890 292 895 q 299 895 311 895 q 323 895 334 892 q 346 889 354 882 q 362 875 362 862 q 365 850 359 843 q 353 837 340 833 q 328 830 311 828 q 294 825 276 820 q 259 814 242 804 q 226 794 214 775 q 186 735 177 692 q 168 649 169 605 q 170 561 175 515 q 181 470 181 425 q 203 418 216 389 q 229 360 234 320 q 240 279 241 232 q 242 185 241 141 q 240 97 238 61 q 236 24 237 6 q 246 6 255 13 q 264 21 272 30 q 281 39 291 46 q 300 54 311 54 l 313 54 q 326 43 328 40 q 330 37 330 23 q 330 6 321 -13 q 312 -31 298 -46 q 284 -62 266 -72 q 248 -82 230 -82 q 206 -82 191 -69 q 176 -57 167 -38 q 158 -20 155 2 q 152 24 152 43 z"},"9":{"x_min":0,"x_max":314,"ha":314,"o":"m 173 42 q 173 43 174 50 q 175 58 176 66 q 178 74 179 81 q 181 88 181 90 q 181 91 181 99 q 182 106 183 117 q 184 127 184 137 q 185 147 185 153 q 189 230 196 308 q 202 386 202 464 l 202 482 q 188 471 176 455 q 164 438 151 423 q 139 407 123 396 q 107 385 86 383 q 65 381 51 388 q 37 396 28 408 q 19 421 15 438 q 11 454 11 472 q 10 497 19 526 q 27 556 43 584 q 60 612 81 636 q 103 659 127 672 q 152 686 180 686 q 207 687 234 668 q 243 660 246 647 q 249 635 251 627 q 262 623 275 613 q 288 604 288 590 q 288 518 280 446 q 272 374 268 301 q 263 231 260 163 q 258 95 251 25 q 244 12 236 6 q 229 0 212 0 q 195 0 183 13 q 171 26 173 42 z m 179 631 q 158 631 140 610 q 122 589 109 561 q 96 533 88 505 q 80 477 80 462 l 86 462 l 111 486 l 190 598 l 190 603 q 190 607 187 619 q 184 631 179 631 z"}," ":{"x_min":0,"x_max":400,"ha":400,"o":""},"I":{"x_min":0,"x_max":150,"ha":150,"o":"m 22 553 q 30 563 37 567 q 43 570 55 570 q 70 570 84 562 q 99 553 101 536 q 104 509 105 481 q 105 453 105 425 q 104 397 104 370 q 104 342 105 314 q 109 248 118 177 q 126 105 126 39 q 126 20 118 10 q 110 0 88 0 q 69 0 60 13 q 50 25 45 43 q 41 61 40 79 q 39 97 39 107 q 39 115 38 140 q 36 165 35 199 q 33 232 31 270 q 29 308 27 341 q 25 375 24 400 q 22 425 22 433 l 22 493 z"},"H":{"x_min":0,"x_max":358,"ha":358,"o":"m 128 251 l 125 251 q 125 211 126 172 q 128 134 128 93 q 128 81 127 70 q 127 59 124 49 q 121 40 114 35 q 106 29 92 29 q 64 29 54 58 q 49 104 48 148 q 47 192 42 239 q 40 253 31 266 q 21 278 21 290 q 21 299 28 305 q 34 311 34 321 q 34 397 30 472 q 25 547 25 622 l 25 639 q 32 648 39 650 q 46 652 58 652 q 86 652 94 635 q 102 618 103 594 l 111 334 q 112 331 115 325 q 117 318 122 318 q 129 318 147 322 q 166 325 187 330 q 207 334 224 339 q 240 345 243 350 q 243 356 244 374 q 244 392 244 398 q 244 439 243 479 q 242 520 239 561 q 239 567 236 593 q 233 619 230 649 q 228 680 225 706 q 223 731 223 738 q 222 739 222 745 q 222 750 222 752 q 222 765 231 771 q 240 776 251 776 q 274 776 286 762 q 297 747 302 726 q 303 715 305 689 q 307 664 310 635 q 312 605 315 580 q 317 554 318 544 l 318 528 q 318 523 320 509 q 321 495 322 490 l 322 90 q 327 73 329 62 q 330 52 330 37 q 330 25 324 12 q 317 -1 302 -1 q 288 -1 277 6 q 266 13 257 23 q 249 34 244 47 q 239 61 239 74 l 239 275 z"},"4":{"x_min":0,"x_max":400,"ha":400,"o":"m 210 239 l 206 239 q 186 239 166 235 q 146 231 125 227 q 105 222 85 218 q 65 214 45 214 l 41 214 q 30 222 20 233 q 10 245 12 260 q 13 266 21 273 q 30 280 33 285 q 34 287 39 295 q 44 304 49 313 q 55 323 60 332 q 64 340 66 342 q 66 346 70 346 l 161 503 q 161 504 163 505 q 164 506 165 507 q 168 511 175 520 q 182 528 189 538 q 197 548 204 557 q 211 565 214 569 q 219 576 225 577 q 230 578 238 578 q 245 578 253 576 q 261 574 268 570 q 274 566 279 560 q 284 553 284 544 l 284 337 q 302 337 316 346 q 330 355 349 355 q 383 355 383 319 q 383 312 380 304 q 378 296 370 293 l 284 260 l 284 257 q 284 202 294 148 q 305 95 305 42 q 305 26 297 13 q 289 0 272 0 q 267 0 261 0 q 256 1 251 4 q 246 8 238 16 q 230 23 230 25 l 230 33 z m 127 293 q 131 293 140 295 q 149 297 160 299 q 171 301 180 302 q 189 304 194 305 q 195 306 200 307 q 204 309 206 310 q 207 310 208 312 q 210 313 210 314 l 210 437 l 206 442 l 127 301 z"},"~":{"x_min":0,"x_max":398,"ha":398,"o":"m 38 490 q 38 495 39 499 q 39 502 40 507 q 47 527 54 548 q 62 568 72 586 q 82 604 95 618 q 108 632 126 638 q 133 638 139 636 q 145 635 150 627 l 206 557 q 214 552 219 545 q 225 538 234 538 q 241 538 247 549 q 253 560 256 564 q 262 573 266 584 q 271 595 276 604 q 281 614 288 621 q 294 627 304 627 q 314 627 318 618 q 321 609 321 596 q 321 575 314 552 q 308 529 296 511 q 285 492 271 480 q 258 468 243 468 q 226 467 210 476 q 194 484 180 498 q 166 511 152 525 q 139 540 126 551 q 116 551 108 537 q 100 523 92 507 q 85 491 78 478 q 70 465 63 465 q 57 465 47 472 q 38 479 38 490 z"},"D":{"x_min":0,"x_max":511,"ha":511,"o":"m 138 31 q 138 40 144 47 q 150 54 150 62 q 150 63 146 66 q 143 69 142 70 q 132 85 131 104 q 130 122 130 139 q 130 229 131 316 q 132 404 132 494 q 122 494 113 490 q 104 485 95 480 q 85 475 74 470 q 63 466 51 466 l 35 466 q 33 469 25 471 q 18 474 18 478 l 18 507 q 22 510 26 515 q 29 521 31 524 l 130 573 l 134 578 q 132 605 137 622 q 142 639 171 639 q 179 639 188 636 q 197 633 206 628 q 214 623 218 615 q 223 607 221 598 q 270 596 317 590 q 365 585 403 567 q 441 549 465 514 q 489 479 489 417 q 489 361 468 306 q 446 250 406 210 l 221 25 q 207 12 198 6 q 188 0 171 0 q 156 0 147 8 q 138 17 138 31 z m 221 119 l 217 119 l 225 124 q 226 125 232 130 q 238 136 246 143 q 254 150 262 157 q 270 164 274 169 q 297 192 322 219 q 347 245 367 275 q 388 305 401 337 q 414 370 414 406 q 414 440 401 464 q 389 488 368 503 q 347 519 318 525 q 290 532 258 532 q 255 532 241 531 q 227 529 221 524 z"},"^":{"x_min":0,"x_max":346,"ha":346,"o":"m 112 802 q 113 804 116 810 q 118 816 121 823 q 124 830 127 836 q 130 843 131 846 q 135 854 145 855 q 155 856 165 856 q 173 856 179 855 q 185 854 190 848 q 193 843 202 831 q 210 818 220 805 q 229 792 238 780 q 246 768 249 764 q 250 763 253 759 q 256 756 256 755 q 259 751 266 741 q 272 730 280 719 q 288 707 295 696 q 302 686 305 682 q 308 677 308 674 q 309 672 309 667 q 309 656 300 652 q 291 648 276 648 q 264 648 253 654 q 243 659 238 667 l 173 764 l 169 761 q 166 757 163 750 q 160 743 153 729 q 146 716 133 694 q 120 672 98 637 q 96 635 87 632 q 79 629 76 629 q 70 629 61 631 q 52 634 44 638 q 36 642 32 647 q 27 652 31 659 z"},"0":{"x_min":0,"x_max":328,"ha":328,"o":"m 25 175 q 25 233 32 292 q 39 352 46 408 q 46 416 50 420 q 54 424 58 429 q 58 430 60 433 q 62 436 62 437 q 76 472 109 496 q 143 520 181 520 q 202 520 217 514 q 231 509 242 499 q 253 488 262 474 q 271 460 281 442 q 289 425 294 402 q 299 380 301 356 q 304 333 305 310 q 306 287 306 268 q 304 235 298 200 q 293 164 281 130 q 270 97 250 68 q 229 40 198 21 q 186 14 170 7 q 155 0 141 0 q 106 0 84 17 q 62 34 49 61 q 36 87 31 118 q 25 148 25 175 z m 99 136 q 100 129 102 118 q 104 107 109 97 q 113 86 120 78 q 127 70 138 70 q 146 70 153 74 q 160 78 165 82 q 190 102 206 129 q 221 156 229 187 q 236 218 238 250 q 240 281 240 311 q 240 314 240 323 q 240 332 240 341 q 239 351 239 359 q 239 368 239 371 q 238 382 234 400 q 230 418 224 435 q 217 452 206 465 q 194 478 179 478 q 170 478 158 472 q 146 467 136 459 q 126 451 119 441 q 111 431 111 421 q 111 413 116 408 q 120 403 120 394 l 120 383 q 119 380 117 366 q 114 352 111 336 q 108 320 106 306 q 104 292 103 289 q 99 265 98 239 q 98 214 98 190 q 98 188 98 180 q 98 172 98 163 q 99 154 99 146 q 99 139 99 136 z"},"F":{"x_min":0,"x_max":417,"ha":417,"o":"m 33 243 q 33 252 36 258 q 38 264 42 269 q 45 274 47 280 q 50 285 50 293 q 50 322 46 351 q 42 380 38 409 q 33 438 29 467 q 25 496 25 525 q 25 546 33 554 q 40 562 62 562 q 78 562 89 553 q 101 545 111 532 l 116 532 q 123 536 142 547 q 160 558 181 569 q 202 581 221 591 q 240 602 248 606 q 265 615 280 621 q 296 627 314 627 q 324 627 329 624 q 334 621 334 608 l 334 606 q 330 587 320 575 q 311 562 297 554 q 284 545 270 539 q 256 532 243 524 q 214 504 194 491 q 174 479 160 471 q 146 463 137 458 q 129 452 124 446 q 124 443 124 435 q 123 427 123 425 q 123 396 124 366 q 125 337 136 310 l 363 417 q 370 420 374 420 q 377 421 384 421 q 388 421 396 418 q 405 415 405 410 q 405 388 390 370 q 375 353 354 338 q 332 323 309 312 q 285 302 268 293 q 264 291 259 290 q 254 289 252 285 l 149 231 q 145 229 144 226 q 144 224 144 219 q 144 217 144 214 q 145 211 145 210 l 165 50 q 168 26 154 13 q 140 -1 119 -1 q 115 -1 109 0 q 104 2 98 4 q 92 7 87 11 q 83 16 82 21 l 58 214 q 58 218 54 221 q 50 224 45 227 q 41 229 37 233 q 33 237 33 243 z"},"`":{"x_min":0,"x_max":244,"ha":244,"o":"m 229 594 q 218 576 201 579 q 184 582 166 594 q 148 606 132 623 q 116 639 108 647 q 104 652 98 658 q 92 664 88 671 q 85 678 84 685 q 84 691 90 699 q 101 714 114 718 q 128 722 144 711 q 158 690 174 679 q 189 667 203 656 q 216 645 224 631 q 231 617 229 594 z"},"k":{"x_min":0,"x_max":390,"ha":390,"o":"m 36 -36 q 36 -31 35 -20 q 34 -8 34 5 q 33 19 33 30 q 32 41 32 46 q 31 73 32 129 q 32 185 33 251 q 33 318 34 389 q 35 459 35 517 q 35 575 35 613 q 34 651 32 652 q 32 662 39 672 q 46 683 57 681 q 64 681 75 678 q 85 676 94 671 q 103 666 109 659 q 115 651 115 641 l 115 355 l 119 355 l 231 483 q 238 492 245 504 q 251 516 258 526 q 265 537 273 546 q 282 555 296 558 q 316 553 331 544 q 346 535 346 513 q 346 511 344 506 q 343 502 342 500 q 339 496 330 485 q 320 474 299 448 q 278 422 243 379 q 207 337 151 270 l 160 265 l 350 245 q 362 243 373 231 q 383 219 383 208 q 383 188 369 180 q 354 172 338 170 q 337 174 332 174 q 326 175 305 177 q 283 179 240 183 q 196 188 119 199 l 123 -33 q 123 -53 116 -63 q 109 -73 86 -73 q 68 -73 55 -62 q 42 -51 36 -36 z"},"u":{"x_min":0,"x_max":342,"ha":342,"o":"m 216 93 q 209 78 202 61 q 195 44 187 30 q 178 17 165 7 q 152 -2 133 -2 q 99 -2 76 15 q 54 32 40 58 q 25 84 20 114 q 14 145 14 171 l 21 407 q 21 414 25 421 q 29 429 37 435 q 44 441 53 445 q 62 449 70 449 q 93 449 108 435 q 124 421 124 398 l 124 389 q 113 371 105 343 q 98 314 93 282 q 89 249 88 215 q 87 181 90 152 q 94 124 102 104 q 109 84 122 80 q 127 80 137 85 q 147 90 159 104 q 171 117 184 142 q 196 167 206 208 q 216 249 221 308 q 226 366 224 448 q 228 459 235 460 q 242 461 250 461 q 259 461 265 460 q 271 460 277 453 q 282 448 288 438 q 294 429 294 428 l 311 -5 q 311 -20 303 -29 q 295 -39 280 -39 q 275 -39 269 -38 q 262 -37 255 -34 q 248 -31 243 -27 q 237 -22 236 -17 l 220 81 z"},"]":{"x_min":0,"x_max":410,"ha":410,"o":"m 135 -56 q 134 -52 129 -41 q 125 -29 123 -26 l 123 -24 q 123 -13 137 -6 q 150 1 168 5 q 187 9 203 10 q 220 11 226 11 q 229 11 243 11 q 256 11 271 10 q 285 10 298 9 q 311 9 314 9 l 314 17 q 313 41 308 85 q 302 130 292 208 q 282 285 268 402 q 253 520 234 689 q 234 691 235 698 q 235 704 235 711 q 235 719 235 725 q 234 731 234 734 q 234 738 234 745 q 233 752 233 759 q 232 766 231 771 q 230 775 230 775 l 226 779 l 98 767 q 97 766 92 764 q 88 763 86 763 q 78 763 65 764 q 53 766 41 770 q 29 774 21 781 q 12 788 12 800 q 12 822 28 829 q 44 836 62 837 q 66 837 84 838 q 103 840 124 841 q 145 843 162 844 q 180 846 185 846 q 203 847 223 850 q 242 854 259 854 q 277 854 294 848 q 312 843 317 821 q 317 820 317 815 q 316 811 316 805 q 315 799 314 794 q 313 789 313 788 l 313 767 q 313 748 315 727 q 316 706 320 672 q 323 639 329 587 q 335 535 344 456 q 353 376 364 263 q 375 150 391 -6 q 391 -7 391 -11 q 392 -15 392 -17 q 392 -30 385 -41 q 378 -52 364 -52 q 346 -52 329 -49 q 312 -47 294 -47 q 271 -47 248 -49 q 225 -51 202 -56 q 200 -56 196 -57 q 191 -59 187 -60 q 182 -62 178 -62 q 174 -63 173 -63 q 171 -63 166 -63 q 160 -62 154 -62 q 148 -61 143 -59 q 138 -58 135 -56 z"},"U":{"x_min":0,"x_max":412,"ha":412,"o":"m 290 138 q 279 117 264 92 q 249 66 229 43 q 209 21 186 5 q 163 -11 137 -11 q 104 -11 84 9 q 64 28 54 57 q 44 86 41 118 q 38 149 38 175 l 38 200 q 39 208 41 224 q 42 239 44 259 q 47 279 49 301 q 51 323 53 343 q 56 363 57 379 q 59 395 60 402 q 56 412 57 422 q 59 433 64 441 q 69 449 78 455 q 87 460 98 460 q 101 460 108 458 q 115 456 123 452 q 131 448 137 444 q 143 439 143 436 l 143 398 q 129 293 125 230 q 121 168 122 133 q 123 99 128 86 q 133 73 138 68 q 149 63 161 66 q 172 68 188 84 q 203 100 225 132 q 247 165 278 220 q 280 223 283 230 q 285 238 286 241 q 284 306 286 371 q 287 437 290 501 q 294 511 303 517 q 312 522 321 522 q 325 522 333 520 q 341 517 349 511 q 356 506 362 500 q 368 494 368 488 l 368 200 q 375 156 379 112 q 383 67 390 23 q 390 19 392 3 q 395 -12 397 -29 q 400 -47 403 -62 q 405 -76 406 -80 l 406 -92 q 406 -127 368 -130 q 352 -132 340 -116 q 329 -100 322 -74 q 315 -48 311 -16 q 307 17 304 47 q 301 77 298 102 q 295 127 290 138 z"},"o":{"x_min":0,"x_max":330,"ha":330,"o":"m 25 149 l 62 400 q 63 413 73 419 q 82 425 94 425 q 115 425 128 413 q 141 400 149 383 l 150 383 q 162 383 171 387 q 181 392 194 392 q 226 392 248 372 q 270 353 283 325 q 297 297 303 265 q 310 232 310 208 q 310 179 294 143 q 279 106 254 74 q 229 42 198 21 q 167 -1 135 -1 q 105 -1 84 13 q 63 26 50 47 q 37 68 31 95 q 25 121 25 146 z m 107 144 q 109 134 111 121 q 113 108 117 98 q 121 88 128 83 q 136 77 149 82 q 162 94 177 108 q 191 123 205 140 q 218 156 227 175 q 235 193 235 214 q 239 247 230 275 q 222 303 206 315 q 189 327 169 318 q 148 309 128 268 q 116 242 112 208 q 107 175 107 146 z"},"N":{"x_min":0,"x_max":435,"ha":435,"o":"m 22 122 q 22 182 25 242 q 27 302 30 362 q 33 422 35 482 q 36 542 34 602 q 37 612 45 618 q 53 623 63 623 q 84 623 95 616 q 105 608 110 596 q 115 583 116 567 q 117 552 118 536 q 130 515 146 495 q 162 475 175 454 q 175 453 176 450 q 178 446 179 446 q 185 438 194 423 q 203 409 212 396 q 221 383 227 373 q 233 363 233 363 l 237 358 l 294 276 q 298 272 301 272 l 303 272 q 290 376 282 484 q 274 592 274 697 l 274 746 q 282 759 301 759 q 319 759 328 750 q 337 741 340 728 q 343 715 343 700 q 343 685 344 672 q 344 671 345 668 q 346 666 347 658 q 349 649 350 632 q 352 615 354 585 q 356 555 359 509 q 361 463 365 396 l 365 379 l 398 161 q 399 153 407 137 q 414 121 414 112 q 414 92 402 79 q 391 66 369 66 q 366 66 361 69 q 356 71 352 74 q 347 77 342 81 q 338 84 336 86 l 179 310 q 178 310 177 313 q 176 316 175 318 q 169 327 159 340 q 149 354 141 367 q 132 380 125 390 q 118 399 118 400 l 113 404 q 108 312 105 217 q 103 123 105 29 q 104 18 93 9 q 83 0 72 0 q 53 0 42 10 q 30 21 22 37 z"},"+":{"x_min":0,"x_max":427,"ha":427,"o":"m 175 102 q 177 130 176 159 q 175 188 167 217 l 163 217 q 135 217 106 207 q 77 196 47 196 q 14 196 14 230 q 14 239 17 246 q 21 253 18 262 q 21 263 31 264 q 41 266 43 266 l 76 266 q 86 268 102 271 q 117 274 132 278 q 146 281 157 284 q 167 287 167 287 l 183 464 q 185 480 190 483 q 196 486 210 486 q 212 486 217 486 q 223 485 225 485 q 232 479 238 469 l 238 434 q 238 400 236 368 q 234 336 234 303 l 238 303 l 378 328 q 386 326 392 325 q 398 324 403 322 q 408 319 411 314 q 414 309 414 298 l 414 295 q 405 286 396 283 q 386 279 375 277 q 365 274 355 271 q 346 269 336 262 l 238 238 q 233 236 233 233 q 233 229 233 226 q 233 200 238 174 q 242 148 242 122 q 242 104 229 92 q 217 81 199 81 l 196 81 z m 142 291 l 142 287 l 134 287 l 134 291 z"},"G":{"x_min":0,"x_max":489,"ha":489,"o":"m 365 -85 q 351 -26 344 40 q 338 105 336 163 q 327 158 321 148 q 315 138 311 126 q 307 115 302 104 q 297 93 290 85 q 268 60 241 39 q 215 18 179 18 q 149 18 121 30 q 92 43 69 64 q 46 85 32 112 q 18 140 18 170 q 18 212 31 255 q 45 299 64 336 q 68 343 77 356 q 85 369 94 383 q 104 396 111 408 q 119 419 122 422 l 229 534 q 250 557 283 567 q 315 577 344 579 q 358 581 368 575 q 378 568 378 554 q 378 542 369 536 q 359 529 347 525 q 334 521 320 518 q 307 515 299 510 q 247 468 205 416 q 163 363 130 307 q 119 272 107 241 q 96 210 96 173 q 96 170 96 160 q 97 149 97 146 q 106 123 126 104 q 146 84 174 84 q 188 84 202 93 q 217 102 225 114 q 229 119 238 134 q 248 148 258 165 q 269 182 278 196 q 287 211 290 217 q 293 223 298 232 q 304 241 308 250 q 312 259 316 266 q 319 273 319 274 l 319 278 q 306 274 292 272 q 278 270 264 270 q 255 270 245 271 q 234 272 225 276 q 216 280 209 287 q 203 294 203 306 q 203 311 204 317 q 205 324 208 328 q 216 335 229 338 q 242 342 257 343 q 272 345 288 346 q 303 348 315 353 q 326 356 341 363 q 355 369 372 375 q 388 382 404 387 q 421 392 435 394 q 438 394 443 392 q 448 390 454 387 q 460 384 464 380 q 468 377 468 374 q 468 353 456 344 q 444 336 426 324 q 429 285 423 246 q 418 207 418 168 q 418 121 420 72 q 422 23 430 -22 q 431 -24 433 -33 q 435 -41 437 -50 q 439 -59 441 -66 q 443 -74 443 -76 l 443 -78 q 443 -92 433 -105 q 423 -118 409 -118 q 395 -118 381 -108 q 368 -99 365 -85 z"},"q":{"x_min":0,"x_max":386,"ha":386,"o":"m 260 152 q 244 121 229 96 q 213 71 199 54 q 185 36 174 27 q 163 18 157 20 q 146 13 137 12 q 128 11 117 11 q 92 11 74 22 q 56 34 44 52 q 32 70 27 93 q 21 115 21 138 q 21 181 37 225 q 52 269 78 307 q 104 345 140 375 q 175 404 214 420 q 225 424 248 429 q 271 434 296 433 q 320 433 339 425 q 357 418 359 398 q 359 388 356 375 q 353 363 350 354 q 352 280 349 208 q 346 135 346 62 q 346 -21 353 -102 q 359 -183 359 -265 q 359 -271 357 -280 q 354 -289 350 -296 q 346 -304 339 -308 q 332 -312 322 -310 q 295 -312 282 -280 q 269 -249 264 -201 q 260 -152 261 -94 q 262 -36 264 16 q 267 68 268 107 q 269 146 264 156 z m 107 186 q 91 127 96 110 q 101 93 118 104 q 136 115 161 148 q 186 181 208 221 q 231 261 248 302 q 264 343 264 371 q 234 359 210 339 q 187 318 167 293 q 148 269 134 241 q 119 213 107 186 z"},"d":{"x_min":0,"x_max":402,"ha":402,"o":"m 268 154 q 267 154 254 133 q 242 111 222 86 q 201 61 173 39 q 146 18 114 18 q 71 18 42 44 q 14 70 14 116 q 12 140 20 172 q 28 204 44 239 q 61 273 83 306 q 106 339 133 363 q 159 387 188 398 q 217 410 246 402 l 246 416 q 246 441 245 468 q 243 495 242 530 q 240 564 239 610 q 237 655 237 719 q 240 729 248 733 q 255 736 264 736 q 286 736 299 722 q 312 707 315 686 q 313 652 314 618 q 314 583 317 539 q 320 495 327 439 q 333 384 343 308 q 353 232 366 134 q 380 36 398 -93 l 398 -126 q 398 -132 394 -135 q 390 -138 383 -139 q 377 -141 371 -141 q 364 -142 361 -142 q 347 -142 330 -133 q 313 -125 311 -110 l 274 150 q 274 153 272 154 q 270 154 268 154 z m 96 133 q 96 130 95 123 q 95 115 95 107 q 96 100 98 94 q 100 88 105 88 q 130 87 156 106 q 182 126 203 155 q 225 184 239 217 q 253 250 254 276 q 256 303 242 317 q 228 331 193 323 q 151 286 124 238 q 96 190 96 133 z"},"1":{"x_min":0,"x_max":138,"ha":138,"o":"m 26 37 q 24 60 24 79 q 23 99 23 118 q 22 137 22 156 q 22 175 22 197 q 22 273 31 348 q 39 423 43 499 q 43 508 42 522 q 42 536 45 549 q 48 562 56 571 q 63 579 80 578 q 96 576 104 565 q 113 555 118 540 q 108 441 100 343 q 92 245 92 145 q 92 121 94 98 q 97 74 97 51 q 97 43 96 34 q 95 25 92 18 q 89 10 83 4 q 76 -1 66 -1 q 49 -1 40 11 q 31 22 26 37 z"},"5":{"x_min":0,"x_max":417,"ha":417,"o":"m 112 34 q 112 44 117 52 q 121 60 127 66 q 134 72 141 78 q 148 84 154 90 q 158 95 167 105 q 176 116 185 127 q 194 139 202 148 q 210 158 212 161 q 220 172 230 188 q 241 203 245 218 q 244 218 241 218 q 238 219 237 219 q 220 219 200 207 q 180 195 166 186 l 162 186 q 149 177 139 168 q 129 160 118 152 q 107 145 101 140 q 90 132 83 130 q 76 128 59 128 q 47 128 40 134 q 33 140 29 148 q 25 157 24 167 q 22 178 22 187 q 22 205 25 224 q 28 242 26 260 l 51 412 q 58 425 59 437 q 61 448 63 458 q 65 467 73 472 q 80 478 99 478 q 113 478 121 472 q 128 466 138 454 l 144 454 q 162 454 180 459 q 198 464 216 462 l 348 486 q 349 487 354 487 q 359 487 361 487 q 378 487 388 479 q 398 470 398 451 q 398 426 373 421 l 254 396 l 245 396 q 214 392 186 388 q 158 384 130 375 q 128 374 125 373 q 122 372 122 371 l 101 247 l 101 231 q 136 254 172 269 q 208 284 251 289 q 263 289 276 287 q 289 284 301 278 q 312 272 320 263 q 328 254 328 239 q 328 220 322 201 q 315 183 305 165 q 295 146 282 130 q 270 113 258 99 q 253 94 242 82 q 231 69 219 56 q 206 42 195 29 q 184 17 179 12 q 174 9 164 4 q 153 0 146 0 q 133 0 123 11 q 112 21 112 34 z"}}}
